<svg xmlns="http://www.w3.org/2000/svg" viewBox="0 0 16 20"><g fill="none"><rect x="-1" width="10" height="10"/><path d="M1.83 7.03L1 9.32 2.25 8.75 2.9 10 3.81 7.42 2.98 8.1 2.4 6.9 1.83 7.03ZM4.18 7.42L5.1 10 5.75 8.75 7 9.32 6.17 7.03 5.6 6.9 5.02 8.1 4.18 7.42ZM4 6.37L3.22 7 2.78 6.09 1.82 6.31 1.81 5.29 0.85 5.06 1.27 4.14 0.5 3.5 1.27 2.86 0.85 1.94 1.81 1.71 1.82 0.69 2.78 0.91 3.22 0 4 0.63 4.78 0 5.21 0.91 6.18 0.69 6.19 1.71 7.15 1.94 6.73 2.86 7.5 3.5 6.73 4.14 7.15 5.06 6.19 5.29 6.18 6.31 5.21 6.09 4.78 7 4 6.37ZM4 5.5C5.1 5.5 6 4.61 6 3.5 6 2.4 5.1 1.5 4 1.5 2.89 1.5 2 2.4 2 3.5 2 4.61 2.89 5.5 4 5.5ZM3.85 2.59L3.64 3.06 3.14 3.14C3.01 3.16 2.95 3.32 3.05 3.42L3.41 3.78 3.32 4.31C3.3 4.44 3.44 4.54 3.56 4.48L4 4.24 4.44 4.48C4.56 4.54 4.7 4.44 4.68 4.31L4.59 3.78 4.95 3.42C5.04 3.32 4.99 3.16 4.86 3.14L4.32 3.06 4.15 2.59C4.09 2.47 3.91 2.47 3.85 2.59Z" fill="#333"/></g></svg>