<svg xmlns="http://www.w3.org/2000/svg" viewBox="0 0 20 20"><g fill="none"><g fill="#333"><path d="M8.7 8L2 8 2 4 4 4 4 5C4 5.6 4.4 6 5 6 5.5 6 6 5.6 6 5L6 4 10 4 10 5C10 5.6 10.4 6 11 6 11.5 6 12 5.6 12 5L12 4 14 4 14 6C14.7 6 15.4 6.1 16 6.3L16 4C16 2.9 15.1 2 14 2L12 2 12 1C12 0.4 11.6 0 11 0 10.5 0 10 0.4 10 1L10 2 6 2 6 1C6 0.4 5.6 0 5 0 4.5 0 4 0.4 4 1L4 2 2 2C0.9 2 0 2.9 0 4L0 16C0 17.1 0.9 18 2 18L7.1 18C6.7 17.4 6.4 16.7 6.3 16L2 16 2 10 7.1 10C7.5 9.2 8.1 8.6 8.7 8ZM14 8C10.7 8 8 10.7 8 14 8 17.3 10.7 20 14 20 17.3 20 20 17.3 20 14 20 10.7 17.3 8 14 8ZM14 18C11.8 18 10 16.2 10 14 10 11.8 11.8 10 14 10 16.2 10 18 11.8 18 14 18 16.2 16.2 18 14 18ZM12.8 15.4C13 15.9 13.6 16.1 14.1 15.9L15.4 15.4C15.9 15.2 16.1 14.6 15.9 14.1 15.7 13.6 15.1 13.4 14.3 13.7L13.9 12.6C13.7 12.1 13.2 11.9 12.6 12.1 12.1 12.3 11.9 12.8 12.1 13.4L12.8 15.4Z"/></g></g></svg>