<svg xmlns="http://www.w3.org/2000/svg" viewBox="0 0 20 20"><g style="fill-rule:evenodd;fill:none"><g fill="#333"><path d="M3.8 4L2 4C0.9 4 0 4.9 0 6L0 18C0 19.1 0.9 20 2 20L18 20C19.1 20 20 19.1 20 18L20 6C20 4.9 19.1 4 18 4L16.2 4C16.1 3.8 16 3.5 15.9 3.3L15.1 1.3C14.8 0.5 14 0 13.2 0L6.8 0C6 0 5.2 0.5 4.9 1.3L4.1 3.3C4 3.5 3.9 3.8 3.8 4ZM2 6L18 6 18 18 2 18 2 6ZM6.8 2L6 4 14 4 13.2 2 6.8 2ZM10 16C12.2 16 14 14.2 14 12 14 9.8 12.2 8 10 8 7.8 8 6 9.8 6 12 6 14.2 7.8 16 10 16ZM10 14C11.1 14 12 13.1 12 12 12 10.9 11.1 10 10 10 8.9 10 8 10.9 8 12 8 13.1 8.9 14 10 14Z"/></g></g></svg>