<svg xmlns="http://www.w3.org/2000/svg" viewBox="0 0 20 20"><g fill="none"><g fill="#333"><path d="M19 5.6C19.6 6.9 20 8.4 20 10 20 15.5 15.5 20 10 20 4.5 20 0 15.5 0 10 0 4.5 4.5 0 10 0 11.7 0 13.2 0.4 14.6 1.1L13.5 2.8C12.4 2.3 11.2 2 10 2 5.6 2 2 5.6 2 10 2 14.4 5.6 18 10 18 14.4 18 18 14.4 18 10 18 9.2 17.9 8.3 17.6 7.6L19 5.6ZM9.5 13.6C9.9 14.2 10.8 14.1 11.2 13.6L17.8 3.6C18.1 3.1 18 2.5 17.6 2.2 17.1 1.9 16.5 2 16.2 2.4L10.3 11.3 7.8 8C7.5 7.5 6.8 7.4 6.4 7.8 6 8.1 5.9 8.7 6.2 9.2L9.5 13.6Z"/></g></g></svg>