<svg viewBox="0 0 45 50" xmlns="http://www.w3.org/2000/svg"><g fill="none" fill-rule="evenodd"><path d="M-5 0h50v50H-5z"/><path d="M31.986 26l-4 4H16v-4h15.986zm-8 8l-1.025 1.025a4.313 4.313 0 0 0-1.167 2.145l-.178.83H16v-4h7.986zM40 36.012V50H0V5h8v4H4v37h32v-5.988l4-4zm0-17.632a4.304 4.304 0 0 0-1.277.883L36 21.987V9h-4V5h8v13.38zM12 18v4H8v-4h4zm4 0h16v4H16v-4zm-4 8v4H8v-4h4zm0 8v4H8v-4h4z" fill="#DDD"/><path d="M15.527 4c.247-2.25 2.14-4 4.473-4a4.488 4.488 0 0 1 4.473 4h1.584C27.682 4 29 5.392 29 7v3H11V7c0-1.657 1.29-3 2.943-3h1.584zM20 7a2 2 0 1 0 0-4 2 2 0 0 0 0 4z" fill="#999"/><path d="M41.993 22L25.718 38.274l-.707 3.296c-.06.281.125.481.419.418l3.296-.707L45 25.007 41.993 22z" fill="#1ABA9C"/><path d="M42.007 28L45 25.007 41.993 22 39 24.992 42.007 28z" fill="#277667"/></g></svg>
