<svg xmlns="http://www.w3.org/2000/svg" viewBox="0 0 20 20"><g style="fill-rule:evenodd;fill:none"><g fill="#333"><path d="M8.97 5.5C8.76 7.16 7.54 8.5 5.94 8.89L5 7 4.06 8.89C2.46 8.5 1.24 7.16 1.03 5.5L1.5 5.5C1.79 5.5 2 5.28 2 5 2 4.73 1.77 4.5 1.5 4.5L1.03 4.5C1.24 2.84 2.46 1.5 4.06 1.11L5 3 5.94 1.11C7.54 1.5 8.76 2.84 8.97 4.5L8.5 4.5C8.21 4.5 8 4.72 8 5 8 5.27 8.23 5.5 8.5 5.5L8.97 5.5ZM5 10C7.76 10 10 7.76 10 5 10 2.24 7.76 0 5 0 2.24 0 0 2.24 0 5 0 7.76 2.24 10 5 10ZM5.38 6.06C5.63 5.93 5.93 5.63 6.06 5.38L7.5 2.5 4.62 3.94C4.37 4.07 4.07 4.37 3.94 4.62L2.5 7.5 5.38 6.06ZM5 5.5C5.28 5.5 5.5 5.28 5.5 5 5.5 4.72 5.28 4.5 5 4.5 4.72 4.5 4.5 4.72 4.5 5 4.5 5.28 4.72 5.5 5 5.5Z"/></g></g></svg>