<svg xmlns="http://www.w3.org/2000/svg" viewBox="0 0 194 37"><g fill="none"><g fill="#333"><path d="M37 18.5C37 8.3 28.7 0 18.5 0 8.3 0 0 8.3 0 18.5 0 28.7 8.3 37 18.5 37L37 37 30.6 32.4C35.7 27.7 37 23 37 18.5ZM52.2 27.9C57.2 27.9 57.3 19 52.4 18.9 47.4 18.7 47.2 27.9 52.2 27.9ZM51.9 16.7C54.9 16.7 55.9 18.9 55.9 18.9 56 18.7 55.9 18.3 55.9 18.1L55.9 14.9C55.9 14.1 55.5 12 56.7 12 57.4 12 58.4 11.9 58.4 12.8L58.4 27.5C58.4 28.2 58.6 29.7 57.5 29.7 56.9 29.7 56 29.8 56 29 56 28.5 56 28 56.1 27.6 55.9 27.7 55.8 28 55.6 28.2 55.2 28.7 54.7 29.2 54.1 29.5 52.5 30.3 50.4 30.2 48.9 29.3 45.7 27.4 45.3 22.4 47 19.4 48.1 17.7 49.9 16.7 51.9 16.7ZM68.7 21.9L69.3 21.9C69.3 20.5 68.9 19.2 67.3 18.9 66.4 18.7 65.4 18.8 64.5 19.1 63.9 19.4 63 20.1 62.4 19.3 61.7 18.1 62.7 17.6 63.7 17.3 65.1 16.8 66.6 16.6 68.1 16.8 70.6 17.3 71.8 19.3 71.8 21.7L71.8 25.9C71.8 26.7 72.3 29.7 71 29.7 70.3 29.7 69.5 29.8 69.5 28.9 69.5 28.4 69.4 27.9 69.6 27.4 69.3 27.5 69.1 28.1 68.8 28.4 68.3 29 67.5 29.6 66.6 29.8 64.5 30.5 61.8 29.6 61.1 27.4 59.6 22.9 65.5 21.9 68.7 21.9ZM75.2 17.9C75.2 17.3 75.5 17 76 17 76.7 17 77.7 16.9 77.7 17.9L77.7 24 77.7 27.8C77.7 28.5 77.9 29.7 76.8 29.7 76.1 29.7 75.3 29.8 75.2 28.9 75.2 28.7 75.2 28.5 75.2 28.3L75.2 24.6 75.2 17.9ZM75.2 13.7C75.2 13 75 12 76 12 76.7 12 77.7 11.9 77.7 12.8 77.7 13.5 77.9 14.5 76.9 14.5 76.2 14.5 75.2 14.6 75.2 13.7ZM81.3 12.8C81.3 12.3 81.5 12 82.1 12L82.9 12C83.4 12 83.7 12.3 83.7 12.8L83.7 26C83.7 27.4 84.4 27.6 84.9 27.6 85.3 27.7 85.6 27.9 85.6 28.4L85.6 29C85.6 29.5 85.4 29.8 84.7 29.8 83.3 29.8 81.3 29.5 81.3 26.3L81.3 12.8ZM87.6 32.7C89.1 33.3 90.2 32.5 90.8 31L91.5 29.6C90.5 27.4 89.6 25.3 88.7 23.2 88.1 21.8 87.5 20.5 87 19.2 86.7 18.6 85.8 17 87.1 17 87.8 17 88.8 16.9 89 17.7 90.2 20.7 91.7 23.7 92.5 26.9 92.8 26.7 92.9 25.7 93 25.4 93.6 23.9 94.2 22.4 94.7 21 95 20.1 95.4 19.3 95.7 18.4 95.9 17.8 96.1 17 96.9 17 97.6 17 98.9 16.9 98.5 18 96.6 22.6 94.8 27.3 92.8 32 92.2 33.3 91.3 34.4 89.9 34.8 89.1 35.1 85.7 35.1 86.4 33.5 86.7 33 86.9 32.5 87.6 32.7ZM100 27.5C100.3 27.2 100.5 26.8 101 26.8 101.5 26.9 102 27.3 102.4 27.5 103.5 28 105.1 28.4 106.1 27.6 107.9 26.5 106.2 25.1 105 24.6 103.6 24 101.9 23.7 100.9 22.4 99.5 20.8 100.2 18.4 102 17.4 103.3 16.7 104.9 16.6 106.3 16.9 107.1 17 109.4 17.6 108.7 18.8 108.5 19.2 108.3 19.6 107.8 19.6 107.3 19.6 106.8 19.1 106.3 19 105.3 18.7 103.6 18.5 102.8 19.4 101.7 20.9 103.7 21.9 104.8 22.3 106.3 22.8 108 23.3 108.8 24.7 109.9 26.6 108.8 28.8 106.8 29.6 105.4 30.2 103.7 30.1 102.3 29.7 101.5 29.4 99.3 28.7 100 27.5ZM112.6 19.1C111.9 19.1 110.9 19.3 110.9 18.3 110.8 17.7 111 17.2 111.7 17.2L112.6 17.2C112.6 16.3 112.1 13.5 113.5 13.5 114.1 13.5 115 13.4 115 14.4L115 17.2C115.9 17.2 118.1 16.7 118.1 18 118.2 18.6 118 19.1 117.3 19.1L115 19.1 115 24.3C115 25.3 115.1 26.4 115.9 27 116.6 27.7 118.4 27.4 118.4 28.5 118.4 29.3 118.3 29.8 117.4 29.8 116.5 29.9 115.6 29.6 114.8 29.2 113.2 28.4 112.6 26.8 112.6 25.1 112.5 23.1 112.6 21.1 112.6 19.1ZM120.7 17.9C120.7 17.3 121 17 121.5 17 122.2 17 123.1 16.9 123.1 17.9 123.1 18.7 123.2 19.5 123 20.3 123.4 19.9 123.5 19.2 123.8 18.8 124.2 18.3 124.7 17.8 125.2 17.5 125.9 17 127.9 16.4 127.9 17.8 127.9 18.2 128 18.9 127.5 19.2 127.2 19.4 126.7 19.3 126.3 19.4 125.9 19.4 125.5 19.6 125.2 19.8 123.7 20.8 123.2 22.8 123.2 24.5L123.2 27.3C123.2 28 123.5 29.7 122.3 29.7 121.6 29.7 120.8 29.8 120.7 28.9 120.7 28.7 120.7 28.5 120.7 28.3L120.7 24.6 120.7 17.9ZM135.1 16.7C136.8 16.7 138.5 17.4 139.5 18.9 140.1 19.7 141.7 23.6 139.8 23.6L131.1 23.6C131.2 25.6 132.4 27.2 134.3 27.8 135.4 28 136.5 28 137.4 27.6 138.1 27.3 139.3 26.2 139.8 27.2 140.1 27.5 140.4 27.9 140.1 28.4 139.9 28.7 139.3 29 138.9 29.2 137.7 29.8 136.3 30.1 134.9 30 132.6 29.9 130.5 28.7 129.4 26.6 127.1 22.3 129.9 16.7 135.1 16.7ZM143.3 17.9C143.3 17.3 143.6 17 144.2 17 144.9 17 145.7 16.9 145.7 17.9 145.7 18.5 145.8 19.1 145.7 19.7 145.9 19.5 146.1 19 146.3 18.8 146.7 18.3 147.1 17.9 147.6 17.6 148.7 16.9 150.1 16.6 151.5 16.8 154.1 17.1 155.1 19.2 155.1 21.6L155.1 25.8 155.1 28.3C155.1 28.9 155.1 29.7 154.2 29.7 153.5 29.7 152.6 29.9 152.6 28.9 152.6 26.7 152.6 24.4 152.6 22.2 152.6 21.4 152.6 20.6 152.1 19.9 151.6 19 150.4 18.9 149.5 19 147.2 19.4 145.8 21.5 145.8 23.7L145.8 26.9C145.8 27.6 146.2 29.7 145 29.7 144.2 29.7 143.4 29.8 143.3 28.9 143.3 28.7 143.3 28.5 143.3 28.3L143.3 24.6 143.3 17.9ZM160.4 32.3C163.2 33.4 167.3 33 167.3 29.3 167.3 28.7 167.3 28 167.4 27.4 167.1 27.7 166.9 28.2 166.6 28.5 166.2 28.9 165.7 29.1 165.1 29.3 164.1 29.7 162.9 29.7 161.9 29.4 159.9 28.8 158.5 27.2 158 25.3 156.8 21.2 159 16.4 163.9 16.7 165.3 16.8 166.9 17.5 167.5 18.9 167.6 18.8 167.5 18.6 167.5 18.5 167.5 17.8 167.4 17 168.4 17 169 17 169.8 17 169.8 17.9L169.8 26C169.8 27.1 169.8 28.1 169.8 29.2 169.8 31.4 168.8 33.4 166.7 34.3 165.6 34.8 164.3 35 163.1 35 162.2 35 158.5 34.8 159.2 33.2 159.4 32.6 159.7 32.1 160.4 32.3ZM174 19.1C173.3 19.1 172.3 19.3 172.3 18.3 172.3 17.7 172.4 17.2 173.2 17.2L174.1 17.2C174.1 16.3 173.6 13.5 174.9 13.5 175.6 13.5 176.5 13.4 176.5 14.4L176.5 17.2C177.3 17.2 179.6 16.7 179.6 18 179.6 18.6 179.5 19.1 178.8 19.1L176.5 19.1 176.5 24.3C176.5 25.3 176.5 26.4 177.3 27 178 27.7 179.9 27.4 179.9 28.5 179.9 29.3 179.8 29.8 178.8 29.8 178 29.9 177 29.6 176.3 29.2 174.7 28.4 174.1 26.8 174 25.1 174 23.1 174 21.1 174 19.1ZM182.2 12.8C182.2 12.3 182.5 12 183 12 183.7 12 184.6 11.9 184.6 12.8 184.6 15.1 184.9 17.4 184.6 19.6 184.9 19.4 185.1 18.9 185.3 18.6 185.7 18.1 186.2 17.8 186.7 17.5 187.9 16.8 189.3 16.6 190.6 16.8 193.1 17.3 193.9 19.4 193.9 21.6L193.9 25.8C193.9 26.7 194.4 29.7 193.1 29.7 192.4 29.7 191.4 29.9 191.4 28.9 191.4 26.7 191.4 24.4 191.4 22.2 191.4 21.4 191.4 20.4 190.9 19.7 190.3 18.9 189.1 18.9 188.2 19 185.9 19.4 184.6 21.6 184.6 23.7L184.6 26.9C184.6 27.6 185 29.7 183.8 29.7 183.1 29.7 182.3 29.8 182.2 28.9 182.2 28.7 182.2 28.5 182.2 28.3L182.2 24.8 182.2 15.2 182.2 12.8ZM138.1 22C138.1 20.2 137 18.6 135 18.6 133 18.6 131.5 20.1 131.2 22L138.1 22ZM65.8 28.1C68 28.1 69.3 25.9 69.3 24.1L69.3 23.5C67.8 23.5 65.9 23.4 64.5 24.3 62.5 25.5 63.6 28.1 65.8 28.1ZM167.4 23.1C167.4 21.5 166.9 19.7 165.2 19.1 163.8 18.5 162 18.9 161 20.1 159 22.8 160.7 28.1 164.7 27.4 166.8 27 167.4 25 167.4 23.1ZM23.5 27.2C22 28.7 20.5 30.3 19 31.7 18.3 32.4 17.3 31.3 17.9 30.6L17.9 30.6C20 28.5 22.2 26.4 24.3 24.3 25.6 23 26.9 21.7 28.3 20.4 29.6 19 30.9 17.6 30.9 15.5 31.1 10.7 25.2 7.7 21.4 10.7 20.3 11.6 19.3 12.7 18.3 13.7 17 14.9 15.7 16.2 14.4 17.5 12.8 19.1 11.2 20.7 9.6 22.3 8.9 23 7.9 21.9 8.5 21.2 9.5 20.3 10.4 19.4 11.3 18.5 12.9 17 14.5 15.4 16.2 13.8 17.5 12.5 18.8 11.1 20.3 9.8 24.1 6.6 30.2 8.1 31.9 12.8 32.8 15.4 32.4 18 30.5 20 28.3 22.5 25.8 24.8 23.5 27.2ZM16.7 29.3C15.9 29.9 14.9 29 15.6 28.3 18.6 25.3 21.6 22.4 24.6 19.4 26.1 17.9 29.1 15.6 26.7 13.4 24.6 11.5 22.6 14.1 21.2 15.5 18.2 18.4 15.1 21.3 12.1 24.2 11.8 24.5 11.6 24.8 11.1 24.7 10.5 24.6 10.5 23.9 10.8 23.5 11 23.2 11.3 23 11.6 22.7 13 21.4 14.5 20 15.9 18.6 17.7 16.9 19.4 15.3 21.1 13.6 22 12.8 22.8 11.9 24 11.5 25.4 11.1 26.8 11.5 27.9 12.6 28.7 13.4 29.2 14.7 29 15.9 28.8 17 28.1 17.8 27.4 18.5 24.9 21.1 22.4 23.6 19.8 26.1 18.9 27.1 18 28 17.1 28.9 17 29 16.8 29.2 16.7 29.3ZM13.3 26L24.4 14.9C24.4 14.9 24.4 14.9 24.4 14.9 24.9 14.4 25.7 14.8 25.7 15.4 25.7 15.6 25.6 15.8 25.5 15.9 25 16.3 24.6 16.8 24.1 17.3 20.9 20.5 17.6 23.7 14.4 26.9 13.8 27.8 12.6 26.7 13.3 26ZM12.4 14.8C12.1 15.2 11.8 15.5 11.4 15.8 11.2 15.6 11.2 15.1 11.4 14.8 11.7 14.6 12.2 14.6 12.4 14.8ZM9.3 12.4C10.7 11.2 12.6 11.1 14.1 11.9 14.6 12.2 14.5 12.9 14.1 13.2 13.7 13.4 13.4 13.2 13.1 13 12 12.5 10.8 12.7 10 13.7 9.3 14.6 9.3 15.6 9.7 16.6 9.9 17 10 17.3 9.7 17.6 9.3 17.9 8.8 17.9 8.5 17.5 7.5 15.8 7.9 13.6 9.3 12.4ZM6.7 18C7 18.4 7.7 19.1 7.5 19.7 7.3 20.3 6.6 20.3 6.2 19.9 5.2 19 4.7 17.2 4.6 15.9 4.4 12.9 6.1 10 8.8 8.7 11.3 7.5 14.4 7.9 16.6 9.7 17.2 10.3 16.5 11.1 15.7 10.8 15 10.6 14.4 10 13.7 9.8 12.1 9.3 10.4 9.5 9 10.3 6.4 11.8 5.4 15.2 6.7 18Z"/></g></g></svg>