<svg xmlns="http://www.w3.org/2000/svg" viewBox="0 0 76 44"><g fill="none"><g fill="#333"><path d="M22.7 31.6C17.6 31.6 13.5 27.3 13.5 22 13.5 16.7 17.6 12.4 22.7 12.4 27.8 12.4 31.9 16.7 31.9 22 31.9 27.3 27.8 31.6 22.7 31.6L22.7 31.6ZM22.7 6.2C13.8 6.2 6.6 13.3 6.6 22 6.6 30.8 13.8 37.9 22.7 37.9 31.6 37.9 38.9 30.8 38.9 22 38.9 13.3 31.6 6.2 22.7 6.2ZM65.7 6.8L40.8 6.8 40.8 12.6 57 12.6 40.3 32.1 40.3 37.2 65.7 37.2 65.7 31.3 49 31.3 65.7 11.9 65.7 6.8ZM14.9 0L11.7 0 11.7 0.7 12.9 0.7 12.9 3.8 13.7 3.8 13.7 0.7 14.9 0.7 14.9 0ZM18 0L18 1.5 16.4 1.5 16.4 0 15.5 0 15.5 3.8 16.4 3.8 16.4 2.3 18 2.3 18 3.8 18.8 3.8 18.8 0 18 0ZM22.4 3.8L22.4 3.1 20.4 3.1 20.4 2.3 22.2 2.3 22.2 1.5 20.4 1.5 20.4 0.7 22.4 0.7 22.4 0 19.5 0 19.5 3.8 22.4 3.8ZM24.7 0L24.7 3.8 26.5 3.8C27.5 3.8 28.3 2.9 28.3 1.9 28.3 0.9 27.5 0.1 26.5 0L24.7 0ZM28.9 0L28.9 3.8 29.7 3.8 29.7 2.6 30.3 2.6 31.2 3.8 32.2 3.8 31.2 2.4C31.7 2.3 32.1 1.8 32.1 1.3 32.1 0.6 31.5 0 30.8 0L28.9 0ZM32.6 3.8L33.5 3.8 33.5 3 32.6 3 32.6 3.8ZM35 0L35 3.8 69.2 3.8 69.2 40.1 63.3 40.1 63.3 40.1 63.4 40.1 63.4 44 72.9 44 72.9 0 35 0ZM43.2 40.1L43.2 40.1 3.8 40.1 3.8 3.8 10.2 3.8 10.2 0 0 0 0 44 43.2 44 43.2 40.1ZM44.6 43.4L45.1 42.8C45.4 43.1 45.7 43.3 46.2 43.3 46.7 43.3 46.8 43.1 46.8 42.9 46.8 42.2 44.8 42.7 44.8 41.2 44.8 40.6 45.3 40.1 46.2 40.1 46.8 40.1 47.1 40.3 47.5 40.6L47.1 41.2C46.7 40.9 46.5 40.8 46.1 40.8 45.8 40.8 45.6 41 45.6 41.2 45.6 41.8 47.6 41.5 47.6 42.9 47.6 43.5 47.2 44 46.2 44 45.5 44 45 43.7 44.6 43.4ZM52.1 42C52.1 40.9 53 40.1 54.1 40.1 55.3 40.1 56.2 40.9 56.2 42 56.2 43.2 55.3 44 54.1 44 53 44 52.1 43.2 52.1 42ZM60.1 44L59.2 41.5 58.3 44 57.6 44 56.3 40.1 57.2 40.1 58 42.7 58.8 40.1 59.6 40.1 60.4 42.7 61.2 40.1 62.1 40.1 60.8 44 60.1 44ZM50.7 40.1L50.7 41.6 49.1 41.6 49.1 40.1 48.2 40.1 48.2 44 49.1 44 49.1 42.5 50.7 42.5 50.7 44 51.5 44 51.5 40.1 50.7 40.1ZM74.2 44L74.2 43 73.8 43 73.8 42.8 74.7 42.8 74.7 43 74.4 43 74.4 44 74.2 44ZM75.8 44L75.8 43.1 75.5 44 75.3 44 75.1 43.1 75.1 44 74.9 44 74.9 42.8 75.2 42.8 75.4 43.7 75.7 42.8 76 42.8 76 44 75.8 44ZM55.3 42C55.3 41.4 54.8 40.8 54.1 40.8 53.4 40.8 53 41.4 53 42 53 42.7 53.4 43.2 54.1 43.2 54.8 43.2 55.3 42.7 55.3 42ZM29.7 1.9L29.7 0.7 30.6 0.7C30.9 0.7 31.2 1 31.2 1.3 31.2 1.6 30.9 1.9 30.6 1.9L29.7 1.9ZM26.4 3.1L25.6 3.1 25.6 0.7 26.4 0.7C27 0.7 27.4 1.3 27.4 1.9 27.4 2.6 27 3.1 26.4 3.1Z"/></g></g></svg>