<svg xmlns="http://www.w3.org/2000/svg" viewBox="0 0 20 18"><g fill="none"><rect y="-1" width="20" height="20"/><path d="M19.7 15C20.5 16.3 19.5 18 18 18L2 18C0.5 18-0.5 16.3 0.3 15L8.3 1C9-0.3 11-0.3 11.7 1L19.7 15ZM10 2L2 16 18 16 10 2ZM10 5.5C9.4 5.5 9 5.9 9 6.4 9 6.7 9.2 9.3 9.2 10.8 9.2 11.2 9.6 11.5 10 11.5 10.4 11.5 10.8 11.2 10.8 10.8 10.9 9.3 11 6.7 11 6.4 11 5.9 10.6 5.5 10 5.5ZM10.8 13.8C10.8 13.3 10.4 13 10 13 9.6 13 9.3 13.3 9.3 13.8 9.3 14.1 9.6 14.5 10 14.5 10.4 14.5 10.8 14.1 10.8 13.8Z" fill="#333"/></g></svg>