<svg xmlns="http://www.w3.org/2000/svg" viewBox="0 0 20 20"><g fill="none"><g fill="#333"><path d="M10 0C4.48 0 0 4.48 0 10 0 15.52 4.48 20 10 20 15.52 20 20 15.52 20 10 20 4.48 15.52 0 10 0ZM10 2C14.41 2 18 5.59 18 10 18 14.41 14.41 18 10 18 5.59 18 2 14.41 2 10 2 5.59 5.59 2 10 2ZM10.71 6.9L12 6.9 12 5 10.49 5 10.49 5.01C8.66 5.07 8.28 6.1 8.25 7.19L8.25 7.19 8.25 8.14 7 8.14 7 10 8.25 10 8.25 15 10.13 15 10.13 10 11.66 10 11.96 8.14 10.13 8.14 10.13 7.56C10.13 7.2 10.37 6.9 10.71 6.9Z"/></g></g></svg>