<svg xmlns="http://www.w3.org/2000/svg" viewBox="0 0 16 20"><g fill="none"><rect x="-2" width="20" height="20"/><path d="M14.6 11.1C15.5 10 16 8.8 16 7.5 16 3.1 12.4 0 8 0 3.6 0 0 3.1 0 7.5 0 8.8 0.5 10 1.4 11.1 2.1 11.8 2.8 12.8 3.4 14L12.6 14C13.2 12.8 13.9 11.8 14.6 11.1ZM10 18C10 19.1 9.1 20 8 20 6.9 20 6 19.1 6 18L10 18ZM2 15C2 14.4 2.5 14 3 14L13 14C13.6 14 14 14.4 14 15 14 15.6 13.5 16 13 16L3 16C2.4 16 2 15.6 2 15ZM6.5 5.7C5.3 5.7 4 6.9 5 9 5.5 9.9 6.5 11 7.2 11.7L7.2 12.2 7.2 14 5.5 14 5.5 12.1C5.1 11.7 4.7 11.2 4.4 10.8 3.7 10 1.9 7 4 4.9 4.7 4.2 5.4 4 6.1 4L6.1 4C6.1 4 6.1 4 6.1 4 7.1 4 7.8 4.4 8 4.6 8.2 4.4 8.9 4 9.8 4 9.8 4 9.9 4 9.9 4 9.9 4 9.9 4 9.9 4 10.5 4 11.3 4.2 12 4.9 14.2 7 12.3 10 11.6 10.8 11.3 11.2 10.9 11.7 10.5 12.1L10.5 14 8.8 14 8.8 12.2 8.8 11.7C9.5 11.1 10.5 9.9 11 9 12 6.9 10.7 5.6 9.3 5.7L9.5 5.7C9.6 6 9.7 6.5 9.7 7.1 9.7 7.9 9.1 9 8 9 6.9 9 6.3 7.9 6.3 7.1 6.3 6.5 6.4 6 6.5 5.7L6.5 5.7ZM7.6 7.1C7.6 7.5 7.8 7.8 8 7.8 8.2 7.8 8.4 7.5 8.4 7.1 8.4 6.6 8.4 6.3 8 6.1 7.6 6.3 7.6 6.6 7.6 7.1L7.6 7.1Z" fill="#333"/></g></svg>