<svg xmlns="http://www.w3.org/2000/svg" viewBox="0 0 20 20"><g style="fill-rule:evenodd;fill:none"><g fill="#333"><path d="M16 6C16 2.7 13.3 0 10 0 6.7 0 4 2.7 4 6L2.9 6C2.3 6 1.8 6.4 1.8 7L0 19C-0.1 19.6 0.3 20 0.8 20L19.2 20C19.7 20 20.1 19.6 20 19L18.2 7C18.2 6.4 17.7 6 17.1 6L16 6ZM14 6C14 3.8 12.2 2 10 2 7.8 2 6 3.8 6 6L14 6ZM8.4 15.3C8.4 15.2 8.3 15.1 8.2 15L6.5 12.8 8 11C8.1 10.9 8.2 10.8 8.2 10.6 8.2 10.3 7.9 10.1 7.6 10.1 7.4 10.1 7.2 10.1 7.1 10.3L5.2 12.7 5.2 10.7C5.2 10.3 5 10 4.6 10 4.3 10 4 10.3 4 10.7L4 15.3C4 15.7 4.3 15.9 4.6 15.9 5 15.9 5.2 15.7 5.2 15.3L5.2 14.1 5.7 13.6 7.3 15.7C7.4 15.9 7.6 15.9 7.8 15.9 8.1 15.9 8.4 15.6 8.4 15.3ZM16 14.4L16 13.4C16 13 15.7 12.7 15.3 12.7L13.7 12.7C13.4 12.7 13.2 12.9 13.2 13.2 13.2 13.5 13.4 13.8 13.7 13.8L14.8 13.8 14.8 14.5C14.5 14.7 14.1 14.9 13.5 14.9 12.5 14.9 11.7 14.1 11.7 13 11.7 11.9 12.5 11.1 13.5 11.1 14 11.1 14.4 11.3 14.7 11.6 14.9 11.7 15 11.8 15.2 11.8 15.5 11.8 15.7 11.5 15.7 11.2 15.7 11.1 15.7 11 15.6 10.9 15.1 10.4 14.5 10 13.5 10 11.8 10 10.5 11.2 10.5 13 10.5 14.8 11.8 16 13.5 16 14.7 16 16 15.4 16 14.4Z"/></g></g></svg>