<svg xmlns="http://www.w3.org/2000/svg" viewBox="0 0 20 20"><g fill="none"><g fill="#333"><path d="M13.74 5.13C13.69 4.95 13.63 4.76 13.56 4.58 12.22 0.95 8.19-0.9 4.57 0.44 0.95 1.78-0.9 5.81 0.44 9.43 0.96 10.86 1.91 12.01 3.08 12.8L2.52 13.99 1.43 13.48C0.94 13.25 0.33 13.46 0.1 13.97 -0.13 14.45 0.08 15.07 0.58 15.3L1.67 15.81 1.31 16.59C1.08 17.09 1.3 17.67 1.8 17.9 2.29 18.13 2.9 17.93 3.13 17.44L3.49 16.66 4.58 17.16C5.07 17.39 5.68 17.18 5.91 16.68 6.14 16.19 5.93 15.58 5.43 15.35L4.34 14.84 4.89 13.68C6.32 14.13 7.91 14.13 9.42 13.57 11.61 12.76 13.15 10.97 13.74 8.89 13.23 8.8 12.69 8.81 12.16 8.92 12 8.95 11.85 8.99 11.7 9.04 11.17 10.28 10.14 11.31 8.78 11.82 6.12 12.8 3.17 11.44 2.19 8.78 1.2 6.13 2.56 3.17 5.22 2.19 7.87 1.21 10.81 2.56 11.8 5.2 12.45 5.09 13.1 5.08 13.74 5.13L13.74 5.13ZM14.44 6.15C13.26 5.9 12.01 5.95 10.78 6.36 8.47 7.14 6.83 9 6.24 11.2 6.64 11.28 7.06 11.31 7.49 11.27 7.74 11.25 7.98 11.21 8.22 11.14 8.75 9.77 9.87 8.64 11.37 8.13 14.06 7.23 16.97 8.68 17.87 11.37 18.77 14.06 17.32 16.97 14.63 17.87 12.05 18.73 9.27 17.43 8.25 14.94 8.11 14.96 7.96 14.98 7.81 14.99 7.3 15.04 6.79 15.03 6.29 14.98 6.32 15.06 6.34 15.14 6.37 15.22 7.59 18.89 11.56 20.86 15.22 19.64 18.89 18.41 20.86 14.44 19.64 10.78 19.05 9.04 17.85 7.68 16.36 6.86L17.83 3.71 18.03 4.25C18.22 4.77 18.81 5.06 19.33 4.87 19.85 4.68 20.13 4.08 19.94 3.55L18.9 0.7C18.8 0.41 18.57 0.2 18.3 0.09 18.07-0.01 17.79-0.03 17.53 0.06L14.68 1.1C14.16 1.29 13.87 1.88 14.06 2.41 14.25 2.92 14.84 3.21 15.38 3.01L16.01 2.78 14.44 6.15 14.44 6.15Z"/></g></g></svg>