<svg viewBox="0 0 50 50" xmlns="http://www.w3.org/2000/svg"><g fill="none" fill-rule="evenodd"><path d="M31 20V4H4v20h3v4l5.967-4h5.578A6.625 6.625 0 0 0 18 26.638V28h-4.667L4 35v-7h-.516C1.56 28 0 26.414 0 24.51V3.49C0 1.562 1.595 0 3.484 0h28.032C33.44 0 35 1.586 35 3.49V20h-4z" fill="#DDD"/><path d="M47 45h.412C48.815 45 50 43.828 50 42.383V26.617C50 25.19 48.841 24 47.412 24H24.588C23.185 24 22 25.172 22 26.617v15.766C22 43.81 23.159 45 24.588 45H40.75L47 50v-5z" fill="#1ABA9C"/><path d="M28.5 37a2.5 2.5 0 1 1 0-5 2.5 2.5 0 0 1 0 5zm7.5 0a2.5 2.5 0 1 1 0-5 2.5 2.5 0 0 1 0 5zm7.5 0a2.5 2.5 0 1 1 0-5 2.5 2.5 0 0 1 0 5z" fill="#277667"/><path d="M19.227 15.974s-.356-.53-.356-.855c0-1.71 3.129-1.933 3.129-4.904C22 8.323 20.52 7 18.103 7c-1.611 0-3.11.692-4.103 1.974l1.518 1.852c.58-.774 1.367-1.262 2.304-1.262 1.03 0 1.48.529 1.48 1.16 0 1.404-2.754 1.689-2.754 4.09 0 .712.225 1.343.618 1.811l2.061-.651zM18.066 21c.824 0 1.517-.753 1.517-1.648 0-.896-.693-1.649-1.517-1.649-.825 0-1.518.753-1.518 1.649 0 .895.693 1.648 1.518 1.648z" fill="#999"/></g></svg>
