<svg xmlns="http://www.w3.org/2000/svg" viewBox="0 0 20 20"><g fill="none"><g fill="#333"><path d="M10 0C4.5 0 0 4.5 0 10 0 15.5 4.5 20 10 20 15.5 20 20 15.5 20 10 20 4.5 15.5 0 10 0ZM10 2C14.4 2 18 5.6 18 10 18 14.4 14.4 18 10 18 5.6 18 2 14.4 2 10 2 5.6 5.6 2 10 2ZM13.8 8.2L14.9 8.2C14.9 8.6 14.9 8.9 14.9 9.3 15.3 9.3 15.6 9.3 16 9.3L16 10.4C15.6 10.4 15.3 10.4 14.9 10.4 14.9 10.8 14.9 11.1 14.9 11.5L13.8 11.5C13.8 11.1 13.8 10.8 13.8 10.4 13.5 10.4 13.1 10.4 12.8 10.4L12.8 9.3C13.1 9.3 13.5 9.3 13.8 9.3 13.8 8.9 13.8 8.6 13.8 8.2ZM4 9.8C4 7.7 6 5.9 8.1 6 9.1 6 10 6.4 10.8 7 10.5 7.4 10.1 7.7 9.8 8 8.8 7.4 7.5 7.2 6.6 8 5.3 8.9 5.2 11 6.5 12 7.7 13.1 10.1 12.5 10.4 10.8 9.6 10.8 8.9 10.8 8.1 10.8 8.1 10.3 8.1 9.9 8.1 9.4 9.4 9.4 10.7 9.4 12 9.4 12.1 10.5 11.9 11.6 11.2 12.5 10.2 13.9 8.2 14.3 6.6 13.7 5 13.1 3.9 11.5 4 9.8Z"/></g></g></svg>