<svg xmlns="http://www.w3.org/2000/svg" viewBox="0 0 21 15"><g fill="none"><rect x="-2" y="-5" width="25" height="25"/><path d="M20.5 1.3C20.5 1.9 19.9 2.5 19.2 2.5L1.8 2.5C1.1 2.5 0.5 1.9 0.5 1.3 0.5 0.6 1.1 0 1.8 0L19.2 0C19.9 0 20.5 0.6 20.5 1.3ZM20.5 7.5C20.5 8.2 19.9 8.8 19.2 8.8L1.8 8.8C1.1 8.8 0.5 8.2 0.5 7.5 0.5 6.8 1.1 6.3 1.8 6.3L19.2 6.3C19.9 6.3 20.5 6.8 20.5 7.5ZM20.5 13.8C20.5 14.4 19.9 15 19.2 15L1.8 15C1.1 15 0.5 14.4 0.5 13.8 0.5 13.1 1.1 12.5 1.8 12.5L19.2 12.5C19.9 12.5 20.5 13.1 20.5 13.8Z" fill="#333"/></g></svg>