<svg xmlns="http://www.w3.org/2000/svg" viewBox="0 0 20 20"><g fill="none"><g fill="#333"><path d="M0.7 9C-0.1 6.9 0 5.5 0 5.5 0 2.5 2.5 0 5.5 0 7.4 0 9 0.9 10 2.3 11 0.9 12.6 0 14.5 0 17.5 0 20 2.5 20 5.5 20 5.5 20.1 7.5 18.9 10 17 14 10.7 19.7 10.7 19.7 10.3 20.1 9.7 20.1 9.3 19.7 9.3 19.7 4 14.9 1.7 11L6 11C6.4 11 6.8 10.7 6.9 10.3L7 10.2 8.1 13.3C8.4 14.2 9.7 14.2 10 13.3L11.5 8.4 12 10.3C12.2 10.7 12.6 11 13 11L15 11C15.6 11 16 10.6 16 10 16 9.4 15.6 9 15 9L13.8 9 12.5 4.7C12.2 3.8 10.8 3.8 10.5 4.7L9 9.7 7.9 6.7C7.6 5.8 6.4 5.8 6.1 6.7L5.3 9 0.7 9Z"/></g></g></svg>