<svg xmlns="http://www.w3.org/2000/svg" viewBox="0 0 20 20"><g fill="none"><g fill="#333"><path d="M10 20C15.5 20 20 15.5 20 10 20 4.5 15.5 0 10 0 4.5 0 0 4.5 0 10 0 15.5 4.5 20 10 20ZM7.5 8.4L10.8 7.4C11.1 7.3 11.4 7.5 11.4 7.8L11.4 15C11.4 15.2 11.5 15.3 11.7 15.3L12.5 15.3C12.6 15.3 12.7 15.3 12.7 15.4L12.7 15.9C12.7 15.9 12.6 16 12.5 16L7.5 16C7.4 16 7.3 15.9 7.3 15.9L7.3 15.4C7.3 15.3 7.4 15.3 7.5 15.3L8.3 15.3C8.5 15.3 8.6 15.2 8.6 15L8.6 10C8.6 9.5 8.2 9 7.6 9 7.5 9 7.3 8.9 7.3 8.8L7.3 8.6C7.3 8.5 7.4 8.4 7.5 8.4ZM11.3 5.2C11.3 5.8 10.8 6.3 10.2 6.3 9.5 6.3 9 5.8 9 5.2 9 4.5 9.5 4 10.2 4 10.8 4 11.3 4.5 11.3 5.2Z"/></g></g></svg>