<svg xmlns="http://www.w3.org/2000/svg" viewBox="0 0 20 20"><g style="fill-rule:evenodd;fill:none"><g fill="#333"><path d="M10 0C4.5 0 0 4.5 0 10 0 15.5 4.5 20 10 20 15.5 20 20 15.5 20 10 20 4.5 15.5 0 10 0ZM10 2C14.4 2 18 5.6 18 10 18 14.4 14.4 18 10 18 5.6 18 2 14.4 2 10 2 5.6 5.6 2 10 2ZM5 7.9C5 6.3 6.3 5 7.9 5L12.1 5C13.7 5 15 6.3 15 7.9L15 12.1C15 13.7 13.7 15 12.1 15L7.9 15C6.3 15 5 13.7 5 12.1L5 7.9ZM6 8C6 6.9 6.9 6 8 6L12 6C13.1 6 14 6.9 14 8L14 12C14 13.1 13.1 14 12 14L8 14C6.9 14 6 13.1 6 12L6 8ZM10 12.5C11.4 12.5 12.5 11.4 12.5 10 12.5 8.6 11.4 7.5 10 7.5 8.6 7.5 7.5 8.6 7.5 10 7.5 11.4 8.6 12.5 10 12.5ZM10 11.5C10.8 11.5 11.5 10.8 11.5 10 11.5 9.2 10.8 8.5 10 8.5 9.2 8.5 8.5 9.2 8.5 10 8.5 10.8 9.2 11.5 10 11.5ZM12.6 8C13 8 13.3 7.7 13.3 7.4 13.3 7 13 6.8 12.6 6.8 12.3 6.8 12 7 12 7.4 12 7.7 12.3 8 12.6 8Z"/></g></g></svg>