<svg xmlns="http://www.w3.org/2000/svg" viewBox="0 0 20 20"><g style="fill-rule:evenodd;fill:none"><g fill="#333"><path d="M17.7 18L19 18C19.5 18 20 17.6 20 17L20 11C20 10.5 19.6 10 19 10L11 10C10.5 10 10 10.4 10 11L10 17C10 17.5 10.4 18 11 18L15 18 15 20 17.7 18ZM8.2 10L6 10C6.1 10.8 6.2 11.5 6.3 12.2 6.9 12.1 7.4 12.1 8 12L8 14C7.6 14 7.3 14.1 7 14.1 7.3 14.8 7.6 15.3 8 15.6L8 17C8 17.3 8.1 17.7 8.2 18 3.6 17.5 0 13.7 0 9 0 4 4 0 9 0 13.6 0 17.4 3.5 17.9 8L11 8C9.7 8 8.6 8.8 8.2 10ZM3.2 12.9C2.6 12.1 2.2 11.1 2.1 10L4 10C4.1 10.9 4.2 11.8 4.4 12.6 4 12.7 3.6 12.8 3.2 12.9ZM4.7 14.5C4.9 14.7 5.1 14.8 5.2 14.9 5.2 14.8 5.1 14.6 5 14.5 4.9 14.5 4.8 14.5 4.7 14.5ZM14.8 5.1C15.4 5.9 15.8 6.9 15.9 8L14 8C13.9 7.1 13.8 6.2 13.6 5.4 14 5.3 14.4 5.2 14.8 5.1ZM13.3 3.5C13.1 3.3 12.9 3.2 12.8 3.1 12.8 3.2 12.9 3.4 13 3.5 13.1 3.5 13.2 3.5 13.3 3.5ZM3.2 5.1C2.6 5.9 2.2 6.9 2.1 8L4 8C4.1 7.1 4.2 6.2 4.4 5.4 4 5.3 3.6 5.2 3.2 5.1ZM4.7 3.5C4.9 3.3 5.1 3.2 5.2 3.1 5.2 3.2 5.1 3.4 5 3.5 4.9 3.5 4.8 3.5 4.7 3.5ZM11.7 5.8C11.8 6.5 11.9 7.2 12 8L6 8C6.1 7.2 6.2 6.5 6.3 5.8 7.2 5.9 8.1 6 9 6 9.9 6 10.8 5.9 11.7 5.8ZM11 3.9C10.5 2.7 9.8 2 9 2 8.2 2 7.5 2.7 7 3.9 7.6 4 8.3 4 9 4 9.7 4 10.4 4 11 3.9ZM12 12L18 12 18 16 12 16 12 12Z"/></g></g></svg>