<svg xmlns="http://www.w3.org/2000/svg" viewBox="0 0 20 20"><g fill="none"><g fill="#333"><path d="M10 0C4.5 0 0 4.5 0 10 0 15.5 4.5 20 10 20 15.5 20 20 15.5 20 10 20 4.5 15.5 0 10 0ZM18 10C18 14.4 14.4 18 10 18 5.6 18 2 14.4 2 10 2 5.6 5.6 2 10 2 14.4 2 18 5.6 18 10ZM15 10.6C14.9 9.1 14.1 8 12.6 8 11.6 8 11 8.4 10.6 9L10.6 8.1 8.5 8.1 8.5 14.6 10.6 14.6 10.6 10.7C10.6 10.4 11 9.7 11.7 9.7 12.7 9.7 12.9 10.5 12.9 11.3L12.9 14.6 15 14.6 15 10.6 15 10.6ZM5.1 14.6L7.3 14.6 7.3 8.1 5.1 8.1 5.1 14.6ZM6.3 7.2L6.1 7.2C5.5 7.2 5 6.7 5 6.1 5 5.5 5.5 5 6.1 5L6.3 5C6.9 5 7.4 5.5 7.4 6.1 7.4 6.7 6.9 7.2 6.3 7.2Z"/></g></g></svg>