<svg xmlns="http://www.w3.org/2000/svg" viewBox="0 0 16 20"><g fill="none"><rect x="-2" width="20" height="20"/><path d="M16 7.4C16 3.3 12.4 0 8 0 3.6 0 0 3.3 0 7.4 0 7.4-0.3 11.3 3.5 15.9 6.5 19.6 7.7 20 8 20L8 20 8 20C8.3 20 9.5 19.6 12.5 15.9 16 11.6 16 7.9 16 7.4 16 7.4 16 7.4 16 7.4ZM11.2 14.7C9.1 17.3 8.2 17.9 8 18 7.8 17.9 6.9 17.3 4.8 14.7 1.9 11 2 7.8 2 7.7L2 7.7 2 7.7C2 4.6 4.7 2 8 2 11.3 2 14 4.6 14 7.7L14 7.7 14 7.8 14 7.8C14 8.1 14 11.1 11.2 14.7ZM8 4C5.8 4 4 5.8 4 8 4 10.2 5.8 12 8 12 10.2 12 12 10.2 12 8 12 5.8 10.2 4 8 4ZM8 10C6.9 10 6 9.1 6 8 6 6.9 6.9 6 8 6 9.1 6 10 6.9 10 8 10 9.1 9.1 10 8 10" fill="#333"/></g></svg>