<svg xmlns="http://www.w3.org/2000/svg" viewBox="0 0 20 20"><g style="fill-rule:evenodd;fill:none"><g fill="#333"><path d="M11.1 13.7C11.8 13.4 12.2 12.7 12.2 12 12.2 10.9 11.2 10 10 10 8.8 10 7.8 10.9 7.8 12 7.8 12.7 8.2 13.4 8.9 13.7L8.9 15C8.9 15.6 9.4 16 10 16 10.6 16 11.1 15.5 11.1 15L11.1 13.7ZM4.4 6L4.4 5C4.4 5 4.4 5 4.4 5 4.4 5 4.4 5 4.4 5 4.4 2.2 6.9 0 10 0 13.1 0 15.6 2.2 15.6 5 15.6 5 15.6 5 15.6 5 15.6 5 15.6 5 15.6 5L15.6 6 17.8 6C19 6 20 6.9 20 8L20 18C20 19.1 19 20 17.8 20L2.2 20C1 20 0 19.1 0 18L0 8C0 6.9 1 6 2.2 6L4.4 6ZM6.7 6L6.7 5C6.7 5 6.7 5 6.7 5 6.7 5 6.7 5 6.7 5 6.7 3.3 8.2 2 10 2 11.8 2 13.3 3.3 13.3 5 13.3 5 13.3 5 13.3 5 13.3 5 13.3 5 13.3 5L13.3 6 6.7 6ZM2.2 8L17.8 8 17.8 18 2.2 18 2.2 8Z"/></g></g></svg>