<svg xmlns="http://www.w3.org/2000/svg" viewBox="0 0 16 20"><g fill="none"><rect x="-2" width="20" height="20"/><path d="M11 17.4C10.8 18.8 9.5 20 8 20 6.5 20 5.2 18.8 5 17.4 5.7 17.4 6.4 17.5 7.1 17.5 7.3 17.8 7.6 18 8 18 8.4 18 8.7 17.8 8.9 17.5 9.6 17.5 10.3 17.4 11 17.4ZM15.1 10.9C15.7 11.3 16 11.9 16 12.7 16 15.2 12.6 16 8 16 3.4 16 0 15.2 0 12.7 0 11.9 0.4 11.3 0.9 10.9L0.7 11.1C1.4 10.2 1.6 9.6 1.8 6.7 2 3 4.6 0 8 0 11.4 0 14 3 14.2 6.7 14.4 9.6 14.6 10.2 15.3 11.1L15.1 10.9ZM12.3 6.8C12.1 4.1 10.3 2 8 2 5.7 2 3.9 4.1 3.7 6.8 3.5 10 3.2 10.9 2.2 12.1 2.1 12.2 2 12.4 2 12.5 2 13.3 4.7 14 8 14 11.3 14 14 13.3 14 12.5 14 12.3 13.9 12.2 13.8 12.1 12.8 10.9 12.5 10 12.3 6.8Z" fill="#333"/></g></svg>