<svg xmlns="http://www.w3.org/2000/svg" viewBox="0 0 20 20"><g fill="none"><g fill="#333"><path d="M10 0C4.48 0 0 4.48 0 10 0 15.52 4.48 20 10 20 15.52 20 20 15.52 20 10 20 4.48 15.52 0 10 0ZM10 2C14.41 2 18 5.59 18 10 18 14.41 14.41 18 10 18 5.59 18 2 14.41 2 10 2 5.59 5.59 2 10 2ZM10.24 5C7.42 5 6 6.96 6 8.59 6 9.58 6.39 10.45 7.22 10.78 7.35 10.84 7.47 10.78 7.51 10.64 7.54 10.54 7.6 10.28 7.63 10.18 7.67 10.03 7.66 9.98 7.55 9.86 7.31 9.58 7.16 9.23 7.16 8.73 7.16 7.28 8.28 5.98 10.08 5.98 11.67 5.98 12.55 6.92 12.55 8.18 12.55 9.84 11.79 11.24 10.67 11.24 10.05 11.24 9.58 10.74 9.73 10.13 9.91 9.4 10.25 8.62 10.25 8.09 10.25 7.62 9.99 7.23 9.45 7.23 8.82 7.23 8.31 7.86 8.31 8.72 8.31 9.26 8.5 9.62 8.5 9.62 8.5 9.62 7.85 12.29 7.73 12.75 7.51 13.68 7.7 14.82 7.72 14.94 7.73 15.01 7.82 15.02 7.86 14.97 7.92 14.9 8.67 13.99 8.93 13.09 9 12.83 9.35 11.51 9.35 11.51 9.55 11.89 10.16 12.23 10.8 12.23 12.71 12.23 14 10.54 14 8.29 14 6.59 12.51 5 10.24 5Z"/></g></g></svg>