<svg xmlns="http://www.w3.org/2000/svg" viewBox="0 0 20 20"><g style="fill-rule:evenodd;fill:none"><g fill="#333"><path d="M11 11L15 11C15.5 11 16 10.6 16 10 16 9.5 15.6 9 15 9L11 9 11 5C11 4.5 10.6 4 10 4 9.5 4 9 4.4 9 5L9 9 5 9C4.5 9 4 9.4 4 10 4 10.5 4.4 11 5 11L9 11 9 15C9 15.5 9.4 16 10 16 10.5 16 11 15.6 11 15L11 11ZM10 20C15.5 20 20 15.5 20 10 20 4.5 15.5 0 10 0 4.5 0 0 4.5 0 10 0 15.5 4.5 20 10 20ZM10 18C14.4 18 18 14.4 18 10 18 5.6 14.4 2 10 2 5.6 2 2 5.6 2 10 2 14.4 5.6 18 10 18Z"/></g></g></svg>