<svg xmlns="http://www.w3.org/2000/svg" viewBox="0 0 20 20"><g fill="none"><g fill="#333"><path d="M14.7 14L12 16 12 14 2 14 2 2 18 2 18 14 14.7 14ZM15.3 16L18 16C19.1 16 20 15.1 20 14L20 2C20 0.9 19.1 0 18 0L2 0C0.9 0 0 0.9 0 2L0 14C0 15.1 0.9 16 2 16L10 16 10 20 15.3 16ZM14 7.9C14 5.7 12.4 4 10 4 7.6 4 6 5.7 6 7.9 6 10.1 7.6 11.8 10 11.8 10.8 11.8 11.5 11.6 12.1 11.2L12.8 12 13.6 11.3 12.9 10.6C13.6 9.9 14 9 14 7.9ZM10 10.8C8.3 10.8 7.2 9.5 7.2 7.9 7.2 6.2 8.3 5 10 5 11.7 5 12.8 6.2 12.8 7.9 12.8 8.6 12.5 9.3 12.1 9.8L11.1 8.7 10.3 9.3 11.3 10.4C10.9 10.6 10.5 10.8 10 10.8Z"/></g></g></svg>