<svg xmlns="http://www.w3.org/2000/svg" viewBox="0 0 20 20"><g fill="none"><g fill="#333"><path d="M10 2C14.42 2 18 5.58 18 10 18 14.42 14.42 18 10 18 5.58 18 2 14.42 2 10L2 9C2 8.44 1.55 8 1 8 0.46 8 0 8.45 0 9L0 10.4C0 10.46 0.01 10.52 0.02 10.58 0.32 15.83 4.67 20 10 20 15.52 20 20 15.52 20 10 20 4.57 15.67 0.15 10.27 0 10.25 0 10.22 0 10.19 0L9.01 0C9.01 0 9.01 0 9.01 0 9 0 9 0 9 0 8.73 0 8.48 0.11 8.3 0.29 8.11 0.48 8 0.73 8 1 8 1 8 1 8 1 8 1.01 8 1.01 8 1.01L8 2.99C8 3.57 8.45 4 9 4 9.54 4 10 3.55 10 2.99L10 2ZM10.93 10.48C10.98 10.64 11 10.82 11 11 11 12.1 10.1 13 9 13 7.9 13 7 12.1 7 11 7 9.9 7.9 9 9 9 9.18 9 9.35 9.02 9.51 9.07L10.3 8.28C10.31 8.27 10.32 8.26 10.33 8.25L12.3 6.28C12.68 5.9 13.32 5.91 13.7 6.29 14.09 6.68 14.1 7.3 13.71 7.69L11.75 9.66C11.74 9.67 11.72 9.68 11.71 9.69L10.93 10.48Z"/></g></g></svg>