<svg viewBox="0 0 50 50" xmlns="http://www.w3.org/2000/svg"><g fill="none" fill-rule="evenodd"><path d="M40 24.013L37.5 21 36 22.808V12h-4.018C29.782 12 28 10.177 28 8.018V4H4v37h17.138l-.138.172 4.301 2.055L24.9 45H3.982C1.782 45 0 43.177 0 41.018V3.982C0 1.782 1.823 0 3.982 0H32v.018L39.982 8H40v16.013zm-8-18.68V8h2.667L32 5.333z" fill="#DDD"/><path d="M29.827 24H8v4h16.446l-.178-.788 4.79-.032.769-3.18zM8 8h16v4H8V8zm0 8h24v4H8v-4z" fill="#999"/><path fill="#1ABA9C" d="M37.5 47.757L34.718 50l-1.557-3.259-3.455.783-.024-3.629-3.444-.832 1.513-3.28L25 37.5l2.75-2.282-1.512-3.281 3.444-.832.024-3.63 3.455.784L34.718 25l2.782 2.243L40.282 25l1.557 3.259 3.455-.783.024 3.629 3.444.832-1.513 3.28L50 37.5l-2.75 2.282 1.512 3.281-3.444.832-.024 3.63-3.455-.784L40.282 50z"/><path d="M35.763 42.883a.416.416 0 0 0 .6-.023l7.586-8.497a.21.21 0 0 0-.018-.293l-2.323-2.019a.212.212 0 0 0-.295.019l-5.443 6.125-2.378-2.233a.222.222 0 0 0-.303 0l-2.134 2.212c-.08.083-.071.219.016.3l4.692 4.409z" fill="#277667"/></g></svg>
