<svg xmlns="http://www.w3.org/2000/svg" viewBox="0 0 20 20"><g fill="none"><g fill="#333"><path d="M13.53 16.06C12.25 17.43 9.95 16.52 9.95 14.65L9.95 13.88C7.55 14.49 5.36 16.44 3.85 18.98 2.74 20.86-0.14 19.96 0.01 17.79 0.41 11.76 2.24 7.63 5.14 5.18 6.69 3.87 8.34 3.18 9.95 2.93L9.95 2.07C9.95 0.2 12.23-0.71 13.52 0.65L19.43 6.87C20.18 7.66 20.19 8.91 19.45 9.71L13.53 16.06ZM18 8.28L18 8.28 12.03 2 12.03 4.88C12.03 4.88 11.43 4.84 11.34 4.84 9.88 4.84 2.85 5.5 2 18 3.58 15.34 6.92 11.63 11.52 11.63L12.03 11.63 12.03 14.69 18 8.28Z"/></g></g></svg>