<svg xmlns="http://www.w3.org/2000/svg" viewBox="0 0 20 20"><g fill="none"><g fill="#333"><path d="M10 0C4.48 0 0 4.48 0 10 0 15.52 4.48 20 10 20 15.52 20 20 15.52 20 10 20 4.48 15.52 0 10 0ZM10 2C14.41 2 18 5.59 18 10 18 14.41 14.41 18 10 18 5.59 18 2 14.41 2 10 2 5.59 5.59 2 10 2ZM15.5 14.95L13.13 13.07C13.86 12.2 14.21 11.21 14.21 10 14.21 7.24 11.92 5 9.1 5 6.28 5 4 7.24 4 10 4 12.76 6.28 15 9.1 15 10.3 15 11.4 14.59 12.27 13.92L12.76 14.95 15.5 14.95ZM9.1 13.8C6.96 13.8 5.22 12.1 5.22 10 5.22 7.9 6.96 6.2 9.1 6.2 11.25 6.2 12.98 7.9 12.98 10 12.98 12.1 11.25 13.8 9.1 13.8ZM10.32 8C10.4 8 10.48 8 10.56 8.01 11.08 8.06 11.69 8.53 11.76 9.42L11.76 9.41C11.76 11.03 9.1 12.63 9.1 12.63 9.1 12.63 6.44 10.96 6.44 9.41L6.44 9.42C6.51 8.53 7.12 8.06 7.64 8.01 7.72 8 7.8 8 7.88 8 8.48 8 8.77 8.1 9.1 8.49 9.43 8.1 9.72 8 10.32 8Z"/></g></g></svg>