<svg viewBox="0 0 27 24" xmlns="http://www.w3.org/2000/svg"><g fill="none" fill-rule="evenodd"><path d="M19.48 21.516A12.12 12.12 0 0 1 12.106 24C5.419 24 0 18.628 0 12S5.42 0 12.105 0C18.791 0 24.21 5.372 24.21 12c0 2.838-.994 5.446-2.656 7.5L27 24h-6.517l-1.002-2.484zm-7.377-.337c5.143 0 9.31-4.132 9.31-9.23 0-5.099-4.167-9.231-9.31-9.231-5.142 0-9.31 4.132-9.31 9.23 0 5.099 4.168 9.231 9.31 9.231z" fill="#333"/><path d="M18.62 10.25c0 2.376-2.435 5.5-6.517 8.145-3.858-2.49-6.517-5.8-6.517-8.145.089-4.214 5.291-4.4 6.517-2.354 1.269-2.045 6.441-1.891 6.518 2.354z" fill="#1ABA9C"/></g></svg>