<svg xmlns="http://www.w3.org/2000/svg" viewBox="0 0 190 24"><g fill="none"><g fill="#333"><path d="M32.8 17.9L35.8 17.9 35.8 18.5C36.1 20.1 37.7 21.1 39.9 21.1 42.1 21.1 43.4 20.3 43.4 19 43.4 16 37.4 17.9 34.2 14.8 33.4 14.1 32.8 12.9 32.8 11.7 32.8 8.9 35.3 6.9 38.8 6.9 40.4 6.9 41.9 7.2 43 7.8L43 7.2 46 7.2 46 12.6 43 12.6 43 11.6C42 10.2 40.8 9.6 39 9.6 37.2 9.6 36 10.4 36 11.6 36 14.3 42.6 12.7 45.4 15.4 46.4 16.4 46.9 17.7 46.9 18.8 46.9 21.8 44.2 23.8 40.3 23.8 38.5 23.8 37.1 23.4 35.8 22.6L35.8 23.5 32.8 23.5 32.8 17.9ZM51 2.8L48 2.8 48 0 54.5 0 54.5 9C56.6 7.4 58.3 6.7 60.1 6.7 62.8 6.7 64.9 8 64.9 11.6L64.9 20.7 67.8 20.7 67.8 23.5 61.4 23.5 61.4 12.3C61.4 10.7 60.9 9.6 59.3 9.6 58.1 9.6 56.4 10.3 54.5 11.7L54.5 20.7 57.4 20.7 57.4 23.5 47.9 23.5 47.9 20.7 51 20.7 51 2.8ZM86.1 23.5L80.2 23.5 80.2 21.5C78 23.2 76.5 23.8 74.6 23.8 71.4 23.8 68.8 21.5 68.8 18.6 68.8 15.6 71.6 13.3 75.1 13.3 76.6 13.3 78.4 13.8 79.8 14.7L79.8 12.5C79.8 10.2 78 9.4 75.9 9.4 74.3 9.4 73 10 72.3 11.3L69.1 10.5C70.5 8 73 6.7 76.5 6.7 81.5 6.7 83.2 9.1 83.2 11.7L83.2 20.7 86.1 20.7 86.1 23.5ZM91.5 10L88 10 88 7.2 94.1 7.2 94.1 10.8 94.2 10.8C95.3 8.1 97.5 6.9 99.6 6.9L101.8 6.9 101.8 10.1 100 10.1C96.1 10.1 94.9 12.3 94.9 16L94.9 20.7 98.6 20.7 98.6 23.5 88.1 23.5 88.1 20.7 91.5 20.7 91.5 10ZM104.8 16.1C105.4 19.3 107.5 21.2 110.7 21.2 112.9 21.2 115 20.2 116.3 18.5L119.2 19.7C117.4 22.5 114.3 24 110.6 24 105.1 24 101.1 20.4 101.1 15.3 101.1 10 105.6 6.7 110.1 6.7 114.8 6.7 119.2 10.1 119.2 16.1L104.8 16.1ZM136.7 13.3L133.6 13.3C133.4 12.2 132.9 11.3 132.1 10.6 131.4 10 130.3 9.6 129.1 9.6 126 9.6 124 11.9 124 15.2 124 18.7 126.2 21.1 129.2 21.1 131.5 21.1 133.4 19.9 134.4 17.8L137.2 19.1C135.7 22.3 132.9 24 129.1 24 123.2 24 120.4 19.4 120.4 15.2 120.4 10.5 124.1 6.7 128.8 6.7 130.7 6.7 132.4 7.2 133.6 8.3L133.6 7.2 136.7 7.2 136.7 13.3ZM156.1 23.5L150.2 23.5 150.2 21.5C148.1 23.2 146.6 23.8 144.7 23.8 141.4 23.8 138.9 21.5 138.9 18.6 138.9 15.6 141.6 13.3 145.1 13.3 146.6 13.3 148.4 13.8 149.8 14.7L149.8 12.5C149.8 10.2 148 9.4 146 9.4 144.4 9.4 143.1 10 142.3 11.3L139.1 10.5C140.5 8 143 6.7 146.5 6.7 151.5 6.7 153.2 9.1 153.2 11.7L153.2 20.7 156.1 20.7 156.1 23.5ZM161.5 10L158.1 10 158.1 7.2 164.2 7.2 164.2 10.8 164.3 10.8C165.3 8.1 167.5 6.9 169.7 6.9L171.9 6.9 171.9 10.1 170.1 10.1C166.1 10.1 164.9 12.3 164.9 16L164.9 20.7 168.6 20.7 168.6 23.5 158.1 23.5 158.1 20.7 161.5 20.7 161.5 10ZM175.6 16.1C176.1 19.3 178.3 21.2 181.5 21.2 183.7 21.2 185.8 20.2 187 18.5L190 19.7C188.2 22.5 185.1 24 181.4 24 175.9 24 171.9 20.4 171.9 15.3 171.9 10 176.4 6.7 180.9 6.7 185.6 6.7 190 10.1 190 16.1L175.6 16.1ZM27.6 23.5L21.9 19.1C23.7 17.1 24.5 14.8 24.5 11.9 24.5 5.5 19 0.2 12.3 0.2 5.5 0.2 0 5.5 0 11.9 0 18.4 5.5 23.7 12.3 23.7 15.1 23.7 17.8 22.7 19.8 21.1L21 23.5 27.6 23.5ZM79.8 17.4C78.3 16.3 76.8 15.8 75.3 15.8 73.4 15.8 72.1 17 72.1 18.6 72.1 20.2 73.3 21.3 75.2 21.3 76.7 21.3 78.4 20.6 79.8 19.4L79.8 17.4ZM115.8 13.8C115.2 11.2 112.9 9.3 110.2 9.3 107.5 9.3 105.5 11 104.9 13.8L115.8 13.8ZM149.8 17.4C148.3 16.3 146.8 15.8 145.4 15.8 143.5 15.8 142.1 17 142.1 18.6 142.1 20.2 143.4 21.3 145.2 21.3 146.7 21.3 148.4 20.6 149.8 19.4L149.8 17.4ZM186.6 13.8C186 11.2 183.6 9.3 180.9 9.3 178.3 9.3 176.2 11 175.7 13.8L186.6 13.8ZM12.3 20.8C7.1 20.8 2.9 16.9 2.9 11.9 2.9 7 7.1 3.1 12.3 3.1 17.4 3.1 21.6 7 21.6 11.9 21.6 16.9 17.4 20.8 12.3 20.8ZM15.2 7C15.4 7 15.5 7 15.8 7 17 7.1 18.5 8.2 18.6 10.3L18.6 10.3C18.6 14.1 12.2 17.9 12.2 17.9 12.2 17.9 5.9 14 5.9 10.3L5.9 10.3C6 8.2 7.5 7.1 8.7 7 8.9 7 9.1 7 9.3 7 10.8 7 11.4 7.2 12.2 8.1 13 7.2 13.7 7 15.2 7Z"/></g></g></svg>