<svg xmlns="http://www.w3.org/2000/svg" viewBox="0 0 20 20"><g fill="none"><g fill="#333"><path d="M4 14L4 12 6 12 6 14 8 14 8 16 6 16 6 18 4 18 4 16 2 16 2 14 4 14ZM10.5 19.3L10.6 19.4C11.4 20.2 12.7 20.2 13.5 19.4L19.4 13.5C20.2 12.7 20.2 11.4 19.4 10.6L9.4 0.6C9 0.2 8.5 0 7.9 0L2 0C0.9 0 0 0.9 0 2L0 7.9C0 8.5 0.2 9 0.6 9.4L0.7 9.5C1.2 9.1 1.9 8.7 2.5 8.5L2 7.9 2 2 7.9 2 18 12.1 12.1 18 11.5 17.5C11.3 18.1 10.9 18.8 10.5 19.3ZM5 10C2.2 10 0 12.2 0 15 0 17.8 2.2 20 5 20 7.8 20 10 17.8 10 15 10 12.2 7.8 10 5 10Z"/></g></g></svg>