<svg xmlns="http://www.w3.org/2000/svg" viewBox="0 0 20 20"><g fill="none"><g fill="#333"><path d="M6 14L6 12 4 12 4 14 2 14 2 16 4 16 4 18 6 18 6 16 8 16 8 14 6 14ZM10.5 19.3L10.6 19.4C11.4 20.2 12.7 20.2 13.5 19.4L19.4 13.5C20.2 12.7 20.2 11.4 19.4 10.6L9.4 0.6C9 0.2 8.5 0 7.9 0L2 0C0.9 0 0 0.9 0 2L0 7.9C0 8.5 0.2 9 0.6 9.4L0.7 9.5C3.4 7.3 7.5 7.5 10 10 12.5 12.5 12.7 16.6 10.5 19.3ZM8.5 18.5C6.6 20.5 3.4 20.5 1.5 18.5 -0.5 16.6-0.5 13.4 1.5 11.5 3.4 9.5 6.6 9.5 8.5 11.5 10.5 13.4 10.5 16.6 8.5 18.5Z"/></g></g></svg>