<svg xmlns="http://www.w3.org/2000/svg" viewBox="0 0 20 20"><g fill="none"><g fill="#333"><path d="M10 0C4.48 0 0 4.48 0 10 0 15.52 4.48 20 10 20 15.52 20 20 15.52 20 10 20 4.48 15.52 0 10 0ZM10 2C14.41 2 18 5.59 18 10 18 14.41 14.41 18 10 18 5.59 18 2 14.41 2 10 2 5.59 5.59 2 10 2ZM15 6.96C14.83 7.05 14.33 7.24 13.86 7.28 14.16 7.12 14.61 6.6 14.72 6.18 14.43 6.36 13.76 6.63 13.43 6.63 13.43 6.63 13.43 6.63 13.43 6.63 13.05 6.24 12.53 6 11.94 6 10.8 6 9.88 6.91 9.88 8.03 9.88 8.19 9.89 8.34 9.93 8.48 8.38 8.44 6.58 7.68 5.56 6.38 4.93 7.44 5.47 8.63 6.18 9.06 5.94 9.08 5.49 9.03 5.28 8.83 5.27 9.54 5.61 10.48 6.87 10.82 6.63 10.95 6.2 10.91 6.01 10.88 6.08 11.48 6.93 12.26 7.86 12.26 7.53 12.64 6.4 13.32 5 13.1 5.95 13.67 7.06 14 8.23 14 11.56 14 14.14 11.34 14 8.07 14 8.06 14 8.06 14 8.06 14 8.05 14 8.04 14 8.03 14 8.02 14 8.01 14 8 14.3 7.8 14.71 7.44 15 6.96Z"/></g></g></svg>