<svg xmlns="http://www.w3.org/2000/svg" viewBox="0 0 20 20"><g fill="none"><g fill="#333"><path d="M13.68 11.65C14.28 10.92 14.37 10.17 14.53 9.62 15.5 8.77 15.81 7.2 15.55 6.2 15.75 4.9 15.75 1.75 12.75 0.9 11-0.25 8.7-0.28 6.94 0.72 5.17 1.73 4.46 4.2 4.66 6.11 4 7.87 5.36 9.6 5.71 9.8 5.78 10.33 6.27 11.33 6.37 11.44 6.04 11.75 5.69 11.75 5.48 11.81 0.38 12.33-0.62 17.33 0.31 19.09 0.77 19.84 1.4 20 2.52 20L16.34 20C18.75 20 19.4 20 19.95 18.5 20.25 16 19.1 12.75 15.89 12.16 15.32 12 13.99 12 13.68 11.65ZM15.46 14.1C17.67 14.59 18 17 18 18L2 18C2 17 2.06 14.33 5.62 13.81 5.88 13.79 8.37 13.33 8.6 11.34 8.6 11.34 7.71 9.99 7.42 8.42 6.72 8.36 6.3 6.99 6.66 6.53 6.58 5.65 6.38 3.65 7.97 2.42 9.1 1.68 11.03 1.98 11.95 2.8 13.61 2.9 13.85 5.32 13.44 6.41 13.77 6.74 13.69 7.99 12.84 8.36 12.51 10.03 11.69 11.34 11.36 11.67 12.36 14.33 14.69 13.74 15.46 14.1Z"/></g></g></svg>