<svg xmlns="http://www.w3.org/2000/svg" viewBox="0 0 20 20"><g fill="none"><g fill="#333"><path d="M17.31 6.75C17.75 7.74 18 8.84 18 10 18 14.41 14.41 18 10 18 5.59 18 2 14.41 2 10 2 5.59 5.59 2 10 2 13.26 2 16.06 3.95 17.31 6.75 17.21 6.53 17.1 6.31 16.98 6.1 16.39 6.35 15.55 7.01 15.34 7.3 14.96 7.83 15.02 8.34 15.05 8.61L14.94 9.08C14.6 9.14 14.27 9.47 14.18 9.8L14.03 10.32C13.96 10.58 14 10.85 14.13 11.08 14.52 11.75 15.35 11.75 15.77 12.46 16.17 13.13 16.3 13.67 16.93 14 17.09 13.71 17.24 13.41 17.37 13.1 16.32 12.58 17.23 11.16 15 10.58 15.11 10.17 15.11 10.17 15.14 10.07 15.96 9.81 15.93 9.25 16 9.06 16.19 8.61 15.87 8.27 16.15 7.88 16.39 7.55 17.06 7.37 17.37 7 17.44 7.14 17.51 7.29 17.58 7.44 17.5 7.2 17.41 6.97 17.31 6.75ZM10 0C4.49 0 0 4.49 0 10 0 15.51 4.49 20 10 20 15.51 20 20 15.51 20 10 20 4.49 15.51 0 10 0ZM2.14 8.53C2.25 8.72 2.42 8.87 2.63 8.95 3.26 9.2 4.26 9.16 4.64 9.82 5.13 10.68 5.34 11.29 6.13 11.97 5.8 12.4 5.29 12.58 5.36 13.23 5.43 13.79 7.31 15.66 7.2 16.03 7.06 16.51 6.57 16.74 6.07 16.97 6.41 17.16 6.77 17.33 7.14 17.47 7.92 16.93 8.53 16.23 8.01 15.39 7.74 14.94 7.28 14.49 6.98 14.07 6.65 13.6 7.16 13.43 6.35 13.12 6.95 12.7 7.4 12.04 7.14 11.59 6.89 11.23 6.47 11.03 6.2 10.69 5.86 10.26 5.77 9.79 5.5 9.32 4.88 8.22 4.14 8.48 3 8.02 3.44 7.74 3.49 6.39 3.55 5.27 2.85 6.22 2.36 7.33 2.14 8.53L2.14 8.53ZM14.38 16.69C14.3 16.45 14.22 16.24 14.17 16.09 13.94 15.34 13.68 14.71 12.85 14.43 12.32 14.25 12.08 14.51 11.6 14.51 11.15 14.51 10.72 14.02 10.18 14.05 9.85 13.55 9.46 13.22 8.96 12.89 10.2 12.5 12.04 11.92 12.42 10.13 12.6 9.27 12.16 8.72 11.77 8.39 12.12 8.07 12.32 7.58 12.29 7.03 12.26 6.15 11.65 5.1 10.94 4.7 10.51 4.45 9.99 4.42 9.5 4.47 9.9 4.21 10.33 4.1 10.79 4.05 11.93 3.92 12.3 3.36 12.44 2.38 12.12 2.28 11.79 2.2 11.46 2.13 11.33 3.09 10.9 2.91 9.97 3.19 9.22 3.41 7.71 4.12 8.35 5.15 8.53 5.43 8.79 5.5 9.08 5.5 9.51 5.5 10.04 5.33 10.44 5.57 10.85 5.8 11.32 6.53 11.29 7.01 11.25 7.63 10.48 7.82 10.45 8.3 10.41 9.05 11.62 9.07 11.44 9.92 11.12 11.46 8.99 11.76 7.86 12.2 7.22 12.86 7.91 13.26 8.36 13.69 8.78 14.09 9.28 14.71 9.75 15.03 9.72 15.01 11.11 15.39 11.14 15.4 11.56 15.45 12.17 15.25 12.53 15.38 13.32 15.64 13.16 16.54 13.36 17.26 13.71 17.1 14.06 16.9 14.38 16.69L14.38 16.69Z"/></g></g></svg>