<svg width="22" height="22" viewBox="0 0 22 22" xmlns="http://www.w3.org/2000/svg"><title>BA622E0F-15AF-4243-BA0F-3020C05F50AB</title><g fill="none" fill-rule="evenodd"><path d="M-2-2h24v24H-2z"/><path d="M20 10H2v8h8v2H1.99C.892 20 0 19.107 0 18.005V3.995C0 2.893.898 2 1.99 2H4V0h2v2h8V0h2v2h2.01C19.108 2 20 2.893 20 3.995V10zm-6-6H6v2H4V4H2v4h16V4h-2v2h-2V4zm3 8a5 5 0 1 1 0 10 5 5 0 0 1 0-10zm0 8a3 3 0 1 0 0-6 3 3 0 0 0 0 6zm.936-3.19a.562.562 0 1 1 .503 1.006l-1.25.625a.562.562 0 0 1-.785-.326l-.625-1.875a.563.563 0 1 1 1.069-.351l.396 1.267.692-.346z" fill="#999"/></g></svg>