<svg width="20" height="20" viewBox="0 0 20 20" xmlns="http://www.w3.org/2000/svg"><title>84DF58B6-983C-4911-974E-17EE93741588</title><g fill="none" fill-rule="evenodd"><path d="M-2-2h24v24H-2z"/><path d="M17.938 9a8.007 8.007 0 0 0-6.05-6.776L10 6 8.112 2.224A8.007 8.007 0 0 0 2.062 9H4v2H2.062a8.007 8.007 0 0 0 6.05 6.776L10 14l1.888 3.776A8.007 8.007 0 0 0 17.938 11H16V9h1.938zM10 20C4.477 20 0 15.523 0 10S4.477 0 10 0s10 4.477 10 10-4.477 10-10 10zm4-14l-2.087 4.592c-.225.495-.82 1.093-1.321 1.32L6 14l2.087-4.592c.225-.495.82-1.093 1.321-1.32L14 6zm-4 5a1 1 0 1 0 0-2 1 1 0 0 0 0 2z" fill="#333"/></g></svg>