<svg width="20" height="18" viewBox="0 0 20 18" xmlns="http://www.w3.org/2000/svg"><title>9A41E42B-D2D7-4E2D-A41B-3211327344C1</title><g fill="none" fill-rule="evenodd"><path d="M-2-3h24v24H-2z"/><path d="M19.734 15.008C20.495 16.34 19.533 18 17.998 18H2.002C.467 18-.495 16.341.266 15.008l7.998-14c.768-1.344 2.704-1.344 3.472 0l7.998 14zM10.02 5.75c-.585 0-1.02.426-1.02.972 0 .267.15 2.97.218 4.45a.762.762 0 0 0 .775.732c.45 0 .79-.32.803-.733.068-1.478.204-4.182.204-4.449a.96.96 0 0 0-.98-.972zm.765 8.275a.778.778 0 0 0-.775-.775.768.768 0 0 0 0 1.538c.425 0 .775-.36.775-.763z" fill="#999" fill-rule="nonzero"/></g></svg>