<svg width="20" height="18" viewBox="0 0 20 18" xmlns="http://www.w3.org/2000/svg"><title>CA2C5DF2-0066-494C-8B16-DD34FEBC36C7</title><g fill="none" fill-rule="evenodd"><path d="M-2-3h24v24H-2z"/><path d="M19.734 15.008C20.495 16.34 19.533 18 17.998 18H2.002C.467 18-.495 16.341.266 15.008l7.998-14c.768-1.344 2.704-1.344 3.472 0l7.998 14zM17.997 16L10 2 2.002 16h15.995zM10.02 5.75a.96.96 0 0 1 .98.972c0 .267-.136 2.97-.204 4.45-.014.412-.354.732-.803.732a.762.762 0 0 1-.775-.733C9.15 9.693 9 6.99 9 6.722c0-.546.435-.972 1.02-.972zm.765 8.275c0 .403-.35.763-.775.763a.768.768 0 1 1 0-1.538c.425 0 .775.35.775.775z" fill="#333" fill-rule="nonzero"/></g></svg>