<svg width="20" height="20" viewBox="0 0 20 20" xmlns="http://www.w3.org/2000/svg"><title>4CAE181C-4657-4BB5-9B6B-62433F7FBEC5</title><g fill="none" fill-rule="evenodd"><path d="M-2-2h24v24H-2z"/><path d="M10 20C4.477 20 0 15.523 0 10S4.477 0 10 0s10 4.477 10 10-4.477 10-10 10zm0-2a8 8 0 1 0 0-16 8 8 0 0 0 0 16zm.007-14c.725 0 1.273.554 1.273 1.264 0 .346-.177 3.862-.265 5.784-.018.536-.46.952-1.044.952a.991.991 0 0 1-1.008-.952C8.875 9.126 8.68 5.61 8.68 5.264c0-.71.566-1.264 1.327-1.264zM11 15.007c0 .525-.454.993-1.007.993a.999.999 0 1 1 0-2c.553 0 1.007.454 1.007 1.007z" fill="#999"/></g></svg>