<svg width="20" height="20" viewBox="0 0 20 20" xmlns="http://www.w3.org/2000/svg"><title>0817DE38-95B1-4DF0-8A3A-2B0886057906</title><g fill="none" fill-rule="evenodd"><path d="M-2-2h24v24H-2z"/><path d="M10 20C4.477 20 0 15.523 0 10S4.477 0 10 0s10 4.477 10 10-4.477 10-10 10zm.007-16c-.761 0-1.327.554-1.327 1.264 0 .346.195 3.862.283 5.784A.991.991 0 0 0 9.971 12c.584 0 1.026-.416 1.044-.952.088-1.922.265-5.438.265-5.784 0-.71-.548-1.264-1.273-1.264zM11 15.007C11 14.454 10.546 14 9.993 14a.999.999 0 0 0 0 2c.553 0 1.007-.468 1.007-.993z" fill="#333"/></g></svg>