<svg viewBox="0 0 20 20" xmlns="http://www.w3.org/2000/svg"><g fill="none" fill-rule="evenodd"><path d="M-2-2h24v24H-2z"/><path d="M10 0c5.522 0 10 4.478 10 10s-4.478 10-10 10S0 15.522 0 10 4.478 0 10 0zm0 2C5.59 2 2 5.588 2 10s3.589 8 8 8c4.412 0 8-3.588 8-8s-3.588-8-8-8z" fill="#999"/><path d="M10.793 5c-.34 0-.664.038-1.044.177-.772.292-1.165.976-1.165 2.041v1.04H7.5v1.736h1.084V15h2.209V9.994h1.504l.203-1.737h-1.707v-.786c0-.24.027-.418.095-.52.094-.151.284-.227.582-.227h1.003V5h-1.68z" fill="#39589A"/></g></svg>