<svg width="22" height="20" viewBox="0 0 22 20" xmlns="http://www.w3.org/2000/svg"><title>3612170E-120F-4887-97CE-B50B83251589</title><g fill="none" fill-rule="evenodd"><path d="M-1-2h24v24H-1z"/><path d="M7.883 16.8h2.679a5.154 5.154 0 1 0-1.746-5H6.794a7.112 7.112 0 0 1 9.082-5.72l1.5-3.218-2.104.616-.632-1.958L19.832 0l2.173 4.954-1.907.774-.88-2.008-1.501 3.219A7.112 7.112 0 1 1 7.883 16.8zm5.084-12.4h-2.684a5.154 5.154 0 1 0 1.948 5h1.948a7.12 7.12 0 0 1-9.115 5.879l-.46.987 1.843.86-.86 1.843-1.843-.86-.86 1.843-1.843-.86.86-1.842-1.843-.86.86-1.843 1.842.86.46-.988A7.12 7.12 0 1 1 12.968 4.4z" fill="#999"/></g></svg>