<svg width="20" height="20" viewBox="0 0 20 20" xmlns="http://www.w3.org/2000/svg"><title>B9255D8C-2475-4A03-AF27-EE1E6911A502</title><g fill="none" fill-rule="evenodd"><path d="M-2-2h24v24H-2z"/><path d="M10 0c5.522 0 10 4.478 10 10s-4.478 10-10 10S0 15.522 0 10 4.478 0 10 0zm0 2c-4.412 0-8 3.588-8 8s3.588 8 8 8 8-3.588 8-8-3.588-8-8-8zm3.839 6.22h1.074c.002.36.004.72.008 1.08.359.003.72.003 1.079.007v1.074l-1.079.01c-.004.36-.006.72-.008 1.079h-1.076c-.003-.359-.003-.718-.007-1.078l-1.08-.011V9.307c.36-.004.718-.005 1.08-.007.002-.362.005-.72.009-1.08zM4.011 9.8c.035-2.06 1.968-3.865 4.07-3.797 1.007-.046 1.954.384 2.725.987-.329.367-.67.721-1.034 1.05-.928-.627-2.246-.807-3.174-.08-1.327.899-1.387 3.022-.111 3.99 1.242 1.104 3.587.556 3.93-1.134-.777-.011-1.557 0-2.334-.025-.002-.454-.004-.909-.002-1.363 1.299-.004 2.599-.006 3.9.003.078 1.07-.066 2.209-.736 3.092-1.016 1.4-3.053 1.809-4.643 1.209-1.595-.595-2.726-2.248-2.591-3.932z" fill="#999"/></g></svg>