<svg width="20" height="20" viewBox="0 0 20 20" xmlns="http://www.w3.org/2000/svg"><title>DCE6F583-DF32-4425-9029-FF8D551229BC</title><g fill="none" fill-rule="evenodd"><path d="M-2-2h24v24H-2z"/><path d="M.729 9C-.077 6.889.002 5.488.002 5.488.002 2.457 2.467 0 5.507 0 7.364 0 9.003.92 10 2.324A5.499 5.499 0 0 1 14.493 0c3.04 0 5.504 2.457 5.504 5.488 0 0 .119 1.997-1.074 4.538-1.91 3.939-8.197 9.69-8.197 9.69-.4.377-1.05.38-1.451-.001 0 0-5.233-4.786-7.578-8.715H6a1 1 0 0 0 .949-.684l.054-.144 1.048 3.144c.307.921 1.614.909 1.903-.018l1.529-4.875.56 1.864A1 1 0 0 0 13 11h2a1 1 0 0 0 0-2h-1.25l-1.292-4.287c-.284-.945-1.618-.953-1.912-.011L8.963 9.728 7.95 6.684c-.304-.912-1.594-.912-1.898 0L5.297 9H.729z" fill="#999"/></g></svg>