<svg width="20" height="20" viewBox="0 0 20 20" xmlns="http://www.w3.org/2000/svg"><title>534F462E-35A3-4CF2-B730-CA57342130FD</title><g fill="none" fill-rule="evenodd"><path d="M-2-2h24v24H-2z"/><path d="M10 0c5.522 0 10 4.478 10 10s-4.478 10-10 10S0 15.522 0 10 4.478 0 10 0zm0 2c-4.412 0-8 3.588-8 8s3.588 8 8 8 8-3.588 8-8-3.588-8-8-8zM5 7.94A2.94 2.94 0 0 1 7.94 5h4.12A2.94 2.94 0 0 1 15 7.94v4.12A2.94 2.94 0 0 1 12.06 15H7.94A2.94 2.94 0 0 1 5 12.06V7.94zm1 .022v4.076C6 13.12 6.878 14 7.962 14h4.076A1.962 1.962 0 0 0 14 12.038V7.962A1.962 1.962 0 0 0 12.038 6H7.962A1.962 1.962 0 0 0 6 7.962zm4 4.538a2.5 2.5 0 1 1 0-5 2.5 2.5 0 0 1 0 5zm0-1a1.5 1.5 0 1 0 0-3 1.5 1.5 0 0 0 0 3zM12.625 8a.625.625 0 1 1 0-1.25.625.625 0 0 1 0 1.25z" fill="#999"/></g></svg>