<svg viewBox="0 0 20 20" xmlns="http://www.w3.org/2000/svg"><defs><linearGradient x1="7.81%" y1="92.265%" x2="93.892%" y2="7.011%" id="a"><stop stop-color="#FFB900" offset="0%"/><stop stop-color="#EA0002" offset="47.522%"/><stop stop-color="#C200A0" offset="100%"/></linearGradient></defs><g fill="none" fill-rule="evenodd"><path d="M-2-2h24v24H-2z"/><path d="M10 0c5.522 0 10 4.478 10 10s-4.478 10-10 10S0 15.522 0 10 4.478 0 10 0zm0 2c-4.412 0-8 3.588-8 8s3.588 8 8 8 8-3.588 8-8-3.588-8-8-8z" fill="#999"/><path d="M7 9.94A2.94 2.94 0 0 1 9.94 7h4.12A2.94 2.94 0 0 1 17 9.94v4.12A2.94 2.94 0 0 1 14.06 17H9.94A2.94 2.94 0 0 1 7 14.06V9.94zm1 .022v4.076C8 15.12 8.878 16 9.962 16h4.076A1.962 1.962 0 0 0 16 14.038V9.962A1.962 1.962 0 0 0 14.038 8H9.962A1.962 1.962 0 0 0 8 9.962zm4 4.538a2.5 2.5 0 1 1 0-5 2.5 2.5 0 0 1 0 5zm0-1a1.5 1.5 0 1 0 0-3 1.5 1.5 0 0 0 0 3zm2.625-3.5a.625.625 0 1 1 0-1.25.625.625 0 0 1 0 1.25z" fill="url(#a)" transform="translate(-2 -2)"/></g></svg>