<svg width="20" height="20" viewBox="0 0 20 20" xmlns="http://www.w3.org/2000/svg"><title>BC246F60-7F17-47CD-8BD4-FB49D0EC322E</title><g fill="none" fill-rule="evenodd"><path d="M-2-2h24v24H-2z"/><path d="M10 20C4.477 20 0 15.523 0 10S4.477 0 10 0s10 4.477 10 10-4.477 10-10 10zm0-2a8 8 0 0 0 8-8 8 8 0 0 0-8-8 8 8 0 0 0-8 8 8 8 0 0 0 8 8zM7.516 8.406l3.312-1.05c.288-.092.587.112.587.403v7.267c0 .144.121.26.27.26h.852c.073 0 .13.055.13.123v.466c0 .07-.057.125-.13.125H7.463a.127.127 0 0 1-.13-.125v-.466c0-.068.059-.123.13-.123h.873c.15 0 .27-.116.27-.26v-5.04c0-.531-.45-.961-1.006-.961a.261.261 0 0 1-.267-.255v-.121c0-.111.075-.208.183-.243zm3.817-3.24a1.167 1.167 0 1 1-2.334 0 1.167 1.167 0 0 1 2.334 0z" fill="#999"/></g></svg>