<svg width="20" height="20" viewBox="0 0 20 20" xmlns="http://www.w3.org/2000/svg"><title>3BFC7064-D9C8-4AC1-ACCA-D9BC7A3AAC56</title><g fill="none" fill-rule="evenodd"><path d="M-2-2h24v24H-2z"/><path d="M10 20C4.477 20 0 15.523 0 10S4.477 0 10 0s10 4.477 10 10-4.477 10-10 10zM7.516 8.406a.257.257 0 0 0-.183.243v.121c0 .14.12.255.267.255.556 0 1.006.43 1.006.962v5.039c0 .144-.12.26-.27.26h-.873a.127.127 0 0 0-.13.123v.466c0 .07.059.125.13.125h5.074c.073 0 .13-.055.13-.125v-.466a.126.126 0 0 0-.13-.123h-.852a.265.265 0 0 1-.27-.26V7.759c0-.29-.299-.495-.587-.403l-3.312 1.05zm3.817-3.24A1.167 1.167 0 1 0 9 5.169a1.167 1.167 0 0 0 2.334-.001z" fill="#333"/></g></svg>