<svg width="20" height="20" viewBox="0 0 20 20" xmlns="http://www.w3.org/2000/svg"><title>115568A8-F210-449E-9623-5A7EC0725682</title><g fill="none" fill-rule="evenodd"><path d="M-2-2h24v24H-2z"/><path d="M2.252 12H5.1a19.83 19.83 0 0 1 0-4H2.252A8.014 8.014 0 0 0 2 10c0 .69.088 1.36.252 2zm.818 2a8.035 8.035 0 0 0 3.467 3.214c-.472-.907-.855-1.997-1.121-3.214H3.07zm14.678-2c.164-.64.252-1.31.252-2s-.088-1.36-.252-2H14.9a19.83 19.83 0 0 1 0 4h2.848zm-.818 2h-2.346c-.266 1.217-.65 2.307-1.121 3.214A8.035 8.035 0 0 0 16.93 14zm-9.835-2h5.81c.062-.64.095-1.31.095-2s-.033-1.36-.095-2h-5.81C7.033 8.64 7 9.31 7 10s.033 1.36.095 2zm.306 2c.52 2.391 1.489 4 2.599 4s2.08-1.609 2.599-4H7.4zm-4.33-8h2.345c.266-1.217.65-2.307 1.121-3.214A8.035 8.035 0 0 0 3.07 6zM16.93 6a8.035 8.035 0 0 0-3.467-3.214c.472.907.855 1.997 1.121 3.214h2.346zM7.4 6H12.6C12.079 3.609 11.11 2 10 2S7.92 3.609 7.401 6zM10 20C4.477 20 0 15.523 0 10S4.477 0 10 0s10 4.477 10 10-4.477 10-10 10z" fill="#999"/></g></svg>