<svg width="22" height="22" viewBox="0 0 22 22" xmlns="http://www.w3.org/2000/svg"><title>A44E1993-3E6D-4B93-BCF0-D611DB6CAAF8</title><g fill="none" fill-rule="evenodd"><path d="M-1-1h24v24H-1z"/><path d="M19.667 20L17 22v-2h-4.005a.992.992 0 0 1-.995-.978v-6.047c0-.539.456-.975.995-.975h8.01a.99.99 0 0 1 .995.975v6.047a.994.994 0 0 1-.995.978h-1.338zM18 9.997c0-.69-.088-1.359-.252-1.997H14.9c.065.645.1 1.313.1 1.997h-2c0-.69-.033-1.359-.095-1.997h-5.81C7.033 8.64 7 9.31 7 10s.033 1.36.095 2H10v2H7.401c.52 2.391 1.489 4 2.599 4v2C4.477 20 0 15.523 0 10S4.477 0 10 0c5.522 0 9.998 4.476 10 9.997h-2zM2.252 12H5.1a19.83 19.83 0 0 1 0-4H2.252A8.014 8.014 0 0 0 2 10c0 .69.088 1.36.252 2zm.818 2a8.035 8.035 0 0 0 3.467 3.214c-.472-.907-.855-1.997-1.121-3.214H3.07zm0-8h2.346c.266-1.217.65-2.307 1.121-3.214A8.035 8.035 0 0 0 3.07 6zm13.86 0a8.035 8.035 0 0 0-3.467-3.214c.472.907.855 1.997 1.121 3.214h2.346zM7.4 6H12.6C12.079 3.609 11.11 2 10 2S7.92 3.609 7.401 6zM14 14h6v4h-6v-4z" fill="#999"/></g></svg>