<svg viewBox="0 0 20 20" xmlns="http://www.w3.org/2000/svg"><g fill="none" fill-rule="evenodd"><path d="M-2-2h24v24H-2z"/><path d="M10 0c5.522 0 10 4.478 10 10s-4.478 10-10 10S0 15.522 0 10 4.478 0 10 0zm8 10c0-4.412-3.588-8-8-8s-8 3.588-8 8 3.588 8 8 8 8-3.588 8-8zm-3.003.562H15v4.003h-2.146v-3.249c0-.841-.106-1.66-1.127-1.66-.72 0-1.116.706-1.116 1.059v3.85H8.465V8.109h2.146v.896c.34-.62.962-1.036 1.955-1.036 1.56 0 2.383 1.148 2.431 2.593zm-9.872 4.003V8.109h2.146v6.456H5.125zM6.3 7.235h-.183a1.118 1.118 0 0 1 0-2.235H6.3a1.117 1.117 0 1 1 0 2.236z" fill="#333"/></g></svg>