<svg width="20" height="20" viewBox="0 0 20 20" xmlns="http://www.w3.org/2000/svg"><title>FF8D5E48-8A80-40ED-A013-6AD7985B1C99</title><g fill="none" fill-rule="evenodd"><path d="M-2-2h24v24H-2z"/><path d="M17.208 13.575c-1.449 2.128-5.06 5.552-5.089 5.578-1.174 1.126-3.031 1.122-4.181.032-.062-.057-3.671-3.482-5.187-5.61-1.332-1.569-5.03-7.564-.733-11.811 3.398-3.148 7.395-1.25 7.995-.625.8-.674 4.547-2.473 7.995.625 4.297 4.247.5 10.242-.8 11.81zm-7.193-9.712C7.165-.24-.589 2.747 2.875 10.058c1.528 3.169 6.412 7.654 6.412 7.654a1.06 1.06 0 0 0 1.455-.001s4.885-4.484 6.39-7.757c3.387-7.056-4.016-10.274-7.117-6.091z" fill="#999" fill-rule="nonzero"/></g></svg>