<svg width="16" height="20" viewBox="0 0 16 20" xmlns="http://www.w3.org/2000/svg"><title>60CE0FD7-CAD7-453D-9CB5-95623591BDB7</title><g fill="none" fill-rule="evenodd"><path d="M-4-2h24v24H-4z"/><path d="M16.003 7.357l-.002.061c.016.505-.002 4.189-3.495 8.485C9.468 19.642 8.341 20 8.021 20h-.035c-.322 0-1.448-.36-4.486-4.097C-.26 11.277.007 7.357.007 7.357.007 3.293 3.59 0 8.005 0c4.418 0 7.998 3.293 7.998 7.357zm-4.816 7.374c2.83-3.589 2.825-6.633 2.814-6.968v-.027l.002-.046c0-3.137-2.69-5.69-5.998-5.69-3.307 0-5.999 2.553-5.999 5.689v.023l-.001.025c-.002.028-.149 3.236 2.814 6.994C6.87 17.33 7.77 17.887 8.003 18c.235-.113 1.133-.67 3.184-3.27zM8.003 4c2.205 0 4 1.794 4 4 0 2.205-1.795 4-4 4s-4-1.795-4-4c0-2.206 1.795-4 4-4zm0 6a2 2 0 1 1 0-4 2 2 0 0 1 0 4" fill="#333"/></g></svg>