<svg width="16" height="20" viewBox="0 0 16 20" xmlns="http://www.w3.org/2000/svg"><title>2977CFFA-E990-41DD-9D37-72C373DE859F</title><g fill="none" fill-rule="evenodd"><path d="M-4-2h24v24H-4z"/><path d="M7 13.732a2 2 0 1 1 2 0V16H7v-2.268zM13 6h1.005C15.107 6 16 6.876 16 8.006v9.988A2 2 0 0 1 14.005 20H1.995A1.986 1.986 0 0 1 0 17.994V8.006A2 2 0 0 1 1.995 6H3v-.99A1.005 1.005 0 0 1 3 5a5 5 0 1 1 10 .005V6zm-2 0v-.99A1.144 1.144 0 0 0 11 5a3 3 0 1 0-6 .005V6h6zM2 8v10h12V8H2z" fill="#999"/></g></svg>