<svg width="20" height="21" viewBox="0 0 20 21" xmlns="http://www.w3.org/2000/svg"><title>F53E0094-417A-44A0-84A5-E43FF938DC48</title><g fill="none" fill-rule="evenodd"><path d="M-2-2h24v24H-2z"/><path d="M15.99 11H18V2H6v9h8v2l1.99-2zm.81 2L12 17v-4H5.593C4.713 13 4 12.264 4 11.38V1.62C4 .725 4.73 0 5.593 0h12.814C19.287 0 20 .736 20 1.62v9.76c0 .895-.73 1.62-1.593 1.62H16.8zM10 17H8v4l-4.8-4H1.593C.713 17 0 16.264 0 15.38V5.62C0 4.725.73 4 1.593 4H2v11h2.01L6 17v-2h4v2z" fill="#333"/></g></svg>