<svg width="18" height="20" viewBox="0 0 18 20" xmlns="http://www.w3.org/2000/svg"><title>5B45D03E-8B27-4E3E-A412-3556723D5C77</title><g fill="none" fill-rule="evenodd"><path d="M-3-2h24v24H-3z"/><path d="M6.534 17.911a2.5 2.5 0 0 0 4.932 0C10.694 17.97 9.867 18 9 18c-.867 0-1.694-.028-2.466-.089zm10.041-6.357c.558.476.925 1.112.925 1.895C17.5 16.099 13.908 17 9 17c-4.906 0-8.5-.899-8.5-3.542 0-.79.372-1.43.937-1.91l-.206.204c.786-.905.973-1.565 1.17-4.676C2.615 3.171 5.426 0 9 0c3.574 0 6.386 3.172 6.6 7.09.202 3.102.393 3.771 1.169 4.655l-.194-.19z" fill="#333" fill-rule="nonzero"/></g></svg>