<svg viewBox="0 0 20 20" xmlns="http://www.w3.org/2000/svg"><g fill="none" fill-rule="evenodd"><path d="M-2-2h24v24H-2z"/><path d="M10 0c5.522 0 10 4.478 10 10s-4.478 10-10 10S0 15.522 0 10 4.478 0 10 0zm0 2c-4.412 0-8 3.588-8 8s3.588 8 8 8 8-3.588 8-8-3.588-8-8-8z" fill="#999"/><path d="M10.242 5C7.422 5 6 6.957 6 8.588c0 .988.387 1.867 1.216 2.194.136.055.258.002.297-.143.028-.101.092-.355.12-.46.04-.145.026-.196-.084-.32-.24-.274-.392-.627-.392-1.128 0-1.451 1.122-2.75 2.922-2.75 1.594 0 2.47.942 2.47 2.2 0 1.657-.757 3.055-1.882 3.055-.62 0-1.085-.497-.936-1.107.178-.727.523-1.513.523-2.038 0-.47-.26-.863-.8-.863-.634 0-1.145.636-1.145 1.487 0 .543.19.91.19.91s-.65 2.663-.765 3.129c-.226.929-.033 2.068-.017 2.183.01.068.1.084.141.033.058-.074.815-.978 1.071-1.88.073-.255.418-1.579.418-1.579.207.381.81.716 1.45.716 1.91 0 3.203-1.683 3.203-3.936C14 6.587 12.51 5 10.242 5" fill="#CA2028"/></g></svg>