<svg width="20" height="20" viewBox="0 0 20 20" xmlns="http://www.w3.org/2000/svg"><title>E806B9EE-0A44-4CA4-814A-C803E36FF02B</title><g fill="none" fill-rule="evenodd"><path d="M-2-2h24v24H-2z"/><path d="M10 0c5.522 0 10 4.478 10 10s-4.478 10-10 10S0 15.522 0 10 4.478 0 10 0zm0 2c-4.412 0-8 3.588-8 8s3.588 8 8 8 8-3.588 8-8-3.588-8-8-8zm.242 3C12.51 5 14 6.587 14 8.291c0 2.253-1.294 3.936-3.202 3.936-.642 0-1.244-.335-1.45-.716 0 0-.346 1.324-.419 1.58-.256.901-1.013 1.805-1.07 1.879-.042.05-.133.035-.142-.033-.016-.115-.21-1.254.017-2.183l.765-3.13s-.19-.366-.19-.909c0-.851.51-1.487 1.145-1.487.54 0 .8.393.8.863 0 .525-.345 1.31-.523 2.038-.15.61.315 1.107.936 1.107 1.125 0 1.882-1.398 1.882-3.054 0-1.259-.876-2.202-2.47-2.202-1.8 0-2.922 1.3-2.922 2.75 0 .502.153.855.392 1.128.11.125.125.176.085.32-.03.106-.093.36-.121.461-.04.145-.161.198-.297.143C6.386 10.455 6 9.576 6 8.588 6 6.957 7.422 5 10.242 5z" fill="#999"/></g></svg>