<svg width="20" height="20" viewBox="0 0 20 20" xmlns="http://www.w3.org/2000/svg"><title>730745EE-DC0C-4EC6-BEF3-BCB71FFF4D9A</title><g fill="none" fill-rule="evenodd"><path d="M-2-3h24v24H-2z"/><path d="M14.685 14H18V2H2v12h10v2l2.685-2zm.648 2L10 20v-4H1.99C.892 16 0 15.094 0 14.006V1.994C0 .893.911 0 1.99 0h16.02C19.108 0 20 .906 20 1.994v12.012A2.005 2.005 0 0 1 18.01 16h-2.677zm-5.325-3.996c.661 0 1.288-.14 1.821-.383l.627.719 1.148-.94-.568-.66c.626-.697 1.009-1.648 1.009-2.738C14.045 5.67 12.34 4 10.008 4 7.665 4 5.96 5.67 5.96 8.002c0 2.331 1.705 4.002 4.048 4.002zm.007-1.462c-1.439 0-2.355-1.102-2.355-2.54 0-1.45.916-2.54 2.355-2.54 1.426 0 2.343 1.09 2.343 2.54 0 .557-.14 1.067-.395 1.473l-.846-.998-1.149.94.847.997c-.244.082-.51.128-.8.128z" fill="#999"/></g></svg>