<svg width="20" height="20" viewBox="0 0 20 20" xmlns="http://www.w3.org/2000/svg"><title>959A224B-53AB-4508-9C46-2592704F8BD3</title><g fill="none" fill-rule="evenodd"><path d="M-2-3h24v24H-2z"/><path d="M8 14h10V2H2v12h3.315L8 16v-2zm2 2v4l-5.333-4H1.99C.89 16 0 15.094 0 14.006V1.994C0 .893.911 0 1.99 0h16.02C19.108 0 20 .906 20 1.994v12.012A2.005 2.005 0 0 1 18.01 16H10zm4.14-3.996L11.065 4h-2.13L5.86 12.004h1.926l.503-1.356h3.422l.503 1.356h1.926zm-2.884-2.856H8.76l1.248-3.444 1.248 3.444z" fill="#333"/></g></svg>