<svg width="20" height="20" viewBox="0 0 20 20" xmlns="http://www.w3.org/2000/svg"><title>9FEBCC0E-0DA7-4CB7-93D9-04FB95F87276</title><g fill="none" fill-rule="evenodd"><path d="M-2-2h24v24H-2z"/><path d="M10 20C4.477 20 0 15.523 0 10S4.477 0 10 0s10 4.477 10 10-4.477 10-10 10zm3.5-13.262C13.5 5.168 12.17 4 9.991 4c-1.227 0-2.748.47-3.37 1.378a.87.87 0 0 0-.121.47c0 .524.398.873.864.873.225 0 .432-.07.605-.192a2.668 2.668 0 0 1 1.798-.68c1.123 0 1.624.575 1.624 1.238 0 1.448-2.765 1.675-2.765 3.803 0 .784.45 1.57 1.123 1.57a.8.8 0 0 0 .813-.803c0-.21-.121-.349-.121-.593 0-1.535 3.059-1.744 3.059-4.326zM11.002 15c0-.55-.451-1-1.001-1C9.465 14 9 14.45 9 15c0 .535.465 1 1 1 .55 0 1.002-.465 1.002-1z" fill="#333"/></g></svg>