<svg width="20" height="20" viewBox="0 0 20 20" xmlns="http://www.w3.org/2000/svg"><title>70F66A61-9A86-406C-A516-509846E6BFD8</title><g fill="none" fill-rule="evenodd"><path d="M-2-2h24v24H-2z"/><path d="M10 20C4.477 20 0 15.523 0 10S4.477 0 10 0s10 4.477 10 10-4.477 10-10 10zm0-2a8 8 0 0 0 8-8 8 8 0 0 0-8-8 8 8 0 0 0-8 8 8 8 0 0 0 8 8zm3.5-11.262c0 2.582-3.06 2.791-3.06 4.326 0 .244.122.384.122.593a.8.8 0 0 1-.813.802c-.674 0-1.123-.785-1.123-1.57 0-2.127 2.765-2.354 2.765-3.802 0-.663-.5-1.238-1.624-1.238-.726 0-1.314.261-1.798.68-.173.122-.38.192-.605.192a.849.849 0 0 1-.864-.872.87.87 0 0 1 .121-.471C7.243 4.47 8.764 4 9.991 4 12.17 4 13.5 5.169 13.5 6.738zM11.002 15c0 .535-.451 1-1.001 1C9.465 16 9 15.535 9 15c0-.55.465-1 1-1 .55 0 1.002.45 1.002 1z" fill="#999"/></g></svg>