<svg width="20" height="20" viewBox="0 0 20 20" xmlns="http://www.w3.org/2000/svg"><title>E51B7327-34B3-4C4D-B1FB-74ED3AD3545C</title><g fill="none" fill-rule="evenodd"><path d="M-2-2h24v24H-2z"/><path d="M10 0c5.522 0 10 4.478 10 10s-4.478 10-10 10S0 15.522 0 10 4.478 0 10 0zm0 2c-4.412 0-8 3.588-8 8s3.588 8 8 8 8-3.588 8-8-3.588-8-8-8zm5.495 12.951h-2.736l-.492-1.034A5.149 5.149 0 0 1 9.103 15C6.285 15 4 12.761 4 10c0-2.762 2.285-5 5.103-5 2.817 0 5.102 2.238 5.102 5 0 1.211-.34 2.202-1.072 3.067l2.362 1.884zM9.105 13.8c2.142 0 3.879-1.702 3.879-3.8 0-2.097-1.737-3.799-3.88-3.799-2.142 0-3.88 1.702-3.88 3.8 0 2.097 1.738 3.799 3.88 3.799zM10.323 8c.075 0 .155.003.24.011.522.05 1.125.515 1.197 1.404v-.004c0 1.615-2.66 3.217-2.66 3.217s-2.66-1.664-2.66-3.217v.004c.074-.889.675-1.353 1.197-1.404.084-.008.166-.011.241-.011.604 0 .892.103 1.221.487.332-.384.62-.487 1.224-.487z" fill="#333"/></g></svg>