<svg width="18" height="18" viewBox="0 0 18 18" xmlns="http://www.w3.org/2000/svg"><title>4E8A8BFE-6A4F-41F7-B6B9-DA57A6241976</title><g fill="none" fill-rule="evenodd"><path d="M-3-3h24v24H-3z"/><path d="M12.176 14.45c-1.152 1.236-3.224.421-3.224-1.269l.002-.688c-2.162.547-4.132 2.304-5.49 4.592-1.001 1.685-3.592.878-3.46-1.077.37-5.422 2.008-9.141 4.62-11.346C6.02 3.484 7.51 2.865 8.951 2.64v-.775c0-1.681 2.054-2.5 3.213-1.282l5.324 5.602a1.86 1.86 0 0 1 .013 2.55l-5.325 5.715zM16 7.496L10.779 2v2.519s-.529-.036-.603-.036C8.896 4.483 2.743 5.063 2 16c1.382-2.328 4.307-5.574 8.33-5.574h.449v2.676L16 7.496z" fill="#333" fill-rule="nonzero"/></g></svg>