<svg width="20" height="20" viewBox="0 0 20 20" xmlns="http://www.w3.org/2000/svg"><title>FEF2A70A-588A-412C-966F-DCE5620AC908</title><g fill="none" fill-rule="evenodd"><path d="M-2-2h24v24H-2z"/><path d="M14.355 19.707L10 17.301l-4.353 2.406c-1.507.822-2.864-.185-2.544-1.867l.94-4.939L.656 9.567c-1.204-1.192-.68-2.79.995-3.05l4.668-.716L8.43 1.177c.723-1.568 2.416-1.571 3.14 0L13.7 5.801l4.651.718c1.672.26 2.196 1.862.995 3.05l-3.357 3.332.91 4.94c.32 1.682-1.038 2.687-2.544 1.866zm-.524-7.482l.75-.743 3.07-3.047-5.319-.822-.45-.976-1.88-4.086-2.313 5.063-1.067.163-4.268.656 3.854 3.792-.2 1.05-.84 4.412L10 15.017l4.838 2.672-1.007-5.464z" fill="#333" fill-rule="nonzero"/></g></svg>