<svg width="20" height="20" viewBox="0 0 20 20" xmlns="http://www.w3.org/2000/svg"><title>E951EA45-50E8-4251-95B6-F8D517130A55</title><g fill="none" fill-rule="evenodd"><path d="M-2-2h24v24H-2z"/><path d="M10 0c5.522 0 10 4.478 10 10s-4.478 10-10 10S0 15.522 0 10 4.478 0 10 0zm0 2c-4.412 0-8 3.588-8 8s3.588 8 8 8 8-3.588 8-8-3.588-8-8-8zM7.398 7.878c1.58.83 2.916.783 2.916.783s-.506-1.838 1.06-2.653c1.564-.815 2.641.56 2.641.56s.273-.079.477-.157c.203-.078.498-.217.498-.217l-.483.896.743-.082s-.092.14-.389.423c-.297.284-.42.43-.42.43s.107 2.213-1.012 3.915c-1.12 1.703-2.565 2.725-4.665 2.94-2.1.215-3.468-.67-3.468-.67s.919-.055 1.504-.288c.585-.233 1.427-.847 1.427-.847s-1.197-.384-1.627-.815c-.43-.431-.537-.687-.537-.687l1.182-.016s-1.243-.687-1.596-1.23a2.591 2.591 0 0 1-.399-1.07l.908.381s-.755-1.069-.862-1.9c-.107-.83.138-1.278.138-1.278s.384.75 1.964 1.582z" fill="#999"/></g></svg>