<svg width="20" height="16" viewBox="0 0 20 16" xmlns="http://www.w3.org/2000/svg"><title>36C6F7CD-CCE3-4E16-8322-B7919D77F5D3</title><g fill="none" fill-rule="evenodd"><path d="M-2-4h24v24H-2z"/><path d="M18 6h2v2h-2v2h-2V8h-2V6h2V4h2v2zM.016 15.04c.14-2.328 1.22-3.543 3.847-3.928 1.084-.056 2.257-1.204 2.35-1.465-.374-.621-.843-1.75-1.044-2.778-1.019-.61-.972-1.692-.79-2.265C4.01.942 6.637-1.27 10.038.789c1.41.147 2.16 2.206 1.699 3.779.294.844.06 1.597-.656 2.187-.258 1.141-.783 2.27-1.25 2.892.511 1.411 1.684 1.458 3.392 1.756 1.672.368 2.606 1.673 2.756 3.612a.802.802 0 0 1-.83.983L.813 16H.8a.8.8 0 0 1-.784-.96z" fill="#999" fill-rule="nonzero"/></g></svg>