<svg width="16" height="16" viewBox="0 0 16 16" xmlns="http://www.w3.org/2000/svg"><title>3101671C-558D-4BCA-9522-3901C1226F86</title><g fill="none" fill-rule="evenodd"><path d="M-4-4h24v24H-4z"/><path d="M10.945 9.324c.249.275 1.311.275 1.763.406 2.575.47 3.495 3.07 3.255 5.07-.44 1.2-.96 1.2-2.892 1.2H2.015c-.895 0-1.402-.125-1.767-.727-.743-1.407.056-5.407 4.138-5.821.168-.053.447-.053.712-.297-.08-.089-.475-.889-.53-1.318-.28-.158-1.369-1.545-.839-2.952-.158-1.526.41-3.5 1.82-4.306 1.41-.806 3.253-.78 4.653.14 2.4.68 2.4 3.2 2.24 4.24.204.8-.046 2.055-.814 2.735-.13.441-.202 1.042-.683 1.63zm1.15 1.756c-.583-.27-2.327.168-3.075-1.823.25-.25.862-1.23 1.11-2.482.634-.283.698-1.218.45-1.468.309-.817.122-2.632-1.116-2.702-.692-.618-2.137-.843-2.984-.29-1.196.924-1.046 2.425-.987 3.08-.27.346.05 1.38.57 1.425.218 1.174.887 2.188.887 2.188-.171 1.489-2.038 1.836-2.233 1.848C2.047 11.248 2 13.25 2 14.001h12c0-.75-.252-2.559-1.905-2.921z" fill="#999" fill-rule="nonzero"/></g></svg>