<svg width="18" height="18" viewBox="0 0 18 18" xmlns="http://www.w3.org/2000/svg"><title>D486D030-1560-4041-A316-9F55988E480A</title><g fill="none" fill-rule="evenodd"><path opacity=".427" d="M-3-3h24v24H-3z"/><path d="M4.532 7H2v4h2.555L7 13.27V4.71L4.532 7zm-.785-2l3.916-3.635C8.4.703 9 .966 9 1.955v14.123c0 .988-.59 1.207-1.337.536L3.77 13H1.5A1.5 1.5 0 0 1 0 11.5v-5A1.5 1.5 0 0 1 1.5 5h2.247zm8.965.292A5.225 5.225 0 0 1 14.25 9c0 1.448-.588 2.76-1.538 3.708a1 1 0 1 1-1.403-1.423A3.234 3.234 0 0 0 12.25 9c0-.891-.36-1.698-.941-2.285a1 1 0 1 1 1.403-1.423zm-1.575 10.76A7.545 7.545 0 0 0 16 9.002a7.545 7.545 0 0 0-4.878-7.056v-.003A1 1 0 1 1 11.86.088V.086C15.45 1.458 18 4.931 18 9c0 4.07-2.552 7.545-6.144 8.915a1 1 0 0 1-.719-1.862z" fill="#333"/></g></svg>