<svg width="18" height="16" viewBox="0 0 18 16" xmlns="http://www.w3.org/2000/svg"><title>348EF02F-1FE2-4D7B-BA7D-A0EEE71ECB47</title><g fill="none" fill-rule="evenodd"><path d="M-3-4h24v24H-3z"/><path d="M1.792 0h14.416A1.8 1.8 0 0 1 18 1.795V14.21A1.8 1.8 0 0 1 16.208 16H1.792C.802 16 0 15.19 0 14.21V1.795C0 .803.82 0 1.792 0zm10.447 10.5c1.306 0 1.97-.768 2.261-1.413l-1.299-.58c-.126.377-.514.703-.962.703-.724 0-1.21-.536-1.21-1.21 0-.674.486-1.21 1.21-1.21.448 0 .836.326.962.703l1.299-.587c-.299-.667-.955-1.406-2.261-1.406C10.679 5.5 9.5 6.507 9.5 8c0 1.486 1.18 2.5 2.739 2.5zM8.5 9.087l-1.299-.58c-.126.377-.514.703-.962.703-.724 0-1.21-.536-1.21-1.21 0-.674.486-1.21 1.21-1.21.448 0 .836.326.962.703L8.5 6.906C8.201 6.239 7.545 5.5 6.239 5.5 4.679 5.5 3.5 6.507 3.5 8c0 1.486 1.18 2.5 2.739 2.5 1.306 0 1.97-.768 2.261-1.413z" fill="#999"/></g></svg>