<svg width="15" height="16" viewBox="0 0 15 16" xmlns="http://www.w3.org/2000/svg"><title>758CBDA9-CF22-4F35-B3F8-77EC136CBD01</title><g fill="none" fill-rule="evenodd"><path opacity=".427" d="M-3-4h24v24H-3z"/><path d="M4.532 6H2v4h2.555L7 12.27V3.71L4.532 6zm-.785-2L7.663.365C8.4-.297 9-.034 9 .955v14.123c0 .988-.59 1.207-1.337.536L3.77 12H1.5A1.5 1.5 0 0 1 0 10.5v-5A1.5 1.5 0 0 1 1.5 4h2.247zm8.965.292A5.225 5.225 0 0 1 14.25 8c0 1.448-.588 2.76-1.538 3.708a1 1 0 1 1-1.403-1.423A3.234 3.234 0 0 0 12.25 8c0-.891-.36-1.698-.941-2.285a1 1 0 1 1 1.403-1.423z" fill="#999"/></g></svg>