<svg width="18" height="16" viewBox="0 0 18 16" xmlns="http://www.w3.org/2000/svg"><title>536727D3-6EA6-4328-ABA5-3959B2FDB4DF</title><g fill="none" fill-rule="evenodd"><path d="M-3-4h24v24H-3z"/><path d="M1.792 0h14.416A1.8 1.8 0 0 1 18 1.795V14.21A1.8 1.8 0 0 1 16.208 16H1.792C.802 16 0 15.19 0 14.21V1.795C0 .803.82 0 1.792 0zM2 2v12h14V2H2zm10.239 8.5C10.679 10.5 9.5 9.486 9.5 8c0-1.493 1.18-2.5 2.739-2.5 1.306 0 1.962.74 2.261 1.406l-1.299.587c-.126-.377-.514-.703-.962-.703-.724 0-1.21.536-1.21 1.21 0 .674.486 1.21 1.21 1.21.448 0 .836-.326.962-.703l1.299.58c-.291.645-.955 1.413-2.261 1.413zM8.5 9.087c-.291.645-.955 1.413-2.261 1.413C4.679 10.5 3.5 9.486 3.5 8c0-1.493 1.18-2.5 2.739-2.5 1.306 0 1.962.74 2.261 1.406l-1.299.587c-.126-.377-.514-.703-.962-.703-.724 0-1.21.536-1.21 1.21 0 .674.486 1.21 1.21 1.21.448 0 .836-.326.962-.703l1.299.58z" fill="#999"/></g></svg>