<svg width="19" height="16" viewBox="0 0 19 16" xmlns="http://www.w3.org/2000/svg"><title>3FFFAB34-A489-4984-8449-95790A013D96</title><g fill="none" fill-rule="evenodd"><path opacity=".427" d="M-3-4h24v24H-3z"/><path d="M16.416 8.002l2.588-2.588L17.59 4l-2.588 2.588L12.414 4 11 5.414l2.588 2.588L11 10.59l1.414 1.414 2.588-2.588 2.588 2.588 1.414-1.414-2.588-2.588zM4.532 6H2v4h2.555L7 12.27V3.71L4.532 6zm-.785-2L7.663.365C8.4-.297 9-.034 9 .955v14.123c0 .988-.59 1.207-1.337.536L3.77 12H1.5A1.5 1.5 0 0 1 0 10.5v-5A1.5 1.5 0 0 1 1.5 4h2.247z" fill="#999"/></g></svg>