<svg width="20" height="20" viewBox="0 0 20 20" xmlns="http://www.w3.org/2000/svg"><title>DCFEE85B-E45C-43FA-933B-AED3E87C40AA</title><g fill="none" fill-rule="evenodd"><path d="M-2-2h24v24H-2z"/><path d="M10 0c5.514 0 10 4.486 10 10s-4.486 10-10 10S0 15.514 0 10 4.486 0 10 0zm0 2c-4.411 0-8 3.589-8 8s3.589 8 8 8 8-3.589 8-8-3.589-8-8-8z" fill="#999"/><path d="M6.814 17.338c.482-.26 1.109-.807 1.206-1.228.17-.732-.555-1.147-.897-1.703-.431-.476-.345-.695-.431-.984-.244-.17-.454-.18-.452-.352-.143-.31 1.052-.697.8-1.405-.372-.559-.601-.35-1.172-1.283-.26-.425-.336-.991-.719-1.345-.555-.516-2.019-.421-2.146-1.096-.053-.278.7-2.028.79-2.408.085-.358.23-.512.218-.832a7.983 7.983 0 0 1 7.807-2.494c.094 1.34-4.528 1.816-2.972 3.045.379.3 1.58-.573 2.435.853.891 1.747-.632 1.645-.531 2.34.188.312.904.627.98 1.182.071.513-.282 1.021-.612 1.371-.767.817-2.019.976-3.016 1.348-.716.31 1.884 2.85 3.128 2.701 1.072-.07 1.988-.323 2.23 1.202.014.41.078.688.157.884A7.951 7.951 0 0 1 10 18a7.955 7.955 0 0 1-3.186-.662zM17.416 7c.377.927.584 1.94.584 3a7.952 7.952 0 0 1-.794 3.472c-.363-.523-.48-1.293-.705-1.71-.638-1.149-1.802-.417-1.429-1.406.085-.584.286-.329.628-.622.353-.397.365-.822.327-1.085-.132-.986.48-.935 1.318-1.649h.071z" fill="#1ABA9C"/></g></svg>