<svg width="20" height="20" viewBox="0 0 20 20" xmlns="http://www.w3.org/2000/svg"><title>57B2BBBE-B6F7-4112-8863-E412D7C301C2</title><g fill="none" fill-rule="evenodd"><path d="M-2-2h24v24H-2z"/><path d="M10 0c5.514 0 10 4.486 10 10s-4.486 10-10 10S0 15.514 0 10 4.486 0 10 0zm0 2c-4.411 0-8 3.589-8 8s3.589 8 8 8 8-3.589 8-8-3.589-8-8-8zM6.814 17.338A7.955 7.955 0 0 0 10 18c1.301 0 2.53-.312 3.617-.866-.08-.196-.143-.473-.158-.884-.241-1.525-1.157-1.273-2.229-1.202-1.244.15-3.844-2.39-3.128-2.701.997-.372 2.25-.531 3.016-1.348.33-.35.683-.858.613-1.371-.077-.555-.793-.87-.981-1.182-.1-.695 1.422-.593.531-2.34-.855-1.426-2.056-.552-2.435-.853-1.556-1.23 3.066-1.704 2.972-3.045a7.995 7.995 0 0 0-7.807 2.494c.013.32-.133.474-.218.832-.09.38-.843 2.13-.79 2.408.127.675 1.591.58 2.146 1.096.383.354.46.92.719 1.345.57.933.8.724 1.173 1.283.251.708-.944 1.096-.8 1.405-.003.173.207.183.45.352.087.29 0 .508.432.984.342.556 1.068.971.897 1.703-.097.42-.724.968-1.206 1.228zM17.416 7c.377.927.584 1.94.584 3a7.952 7.952 0 0 1-.794 3.472c-.363-.523-.48-1.293-.705-1.71-.638-1.149-1.802-.417-1.429-1.406.085-.584.286-.329.628-.622.353-.397.365-.822.327-1.085-.132-.986.48-.935 1.318-1.649h.071z" fill="#999"/></g></svg>