<svg width="166" height="26" viewBox="0 0 166 26" xmlns="http://www.w3.org/2000/svg"><title>9E3AC20E-DF1B-4812-BE68-B575FDD0D679</title><g fill="none" fill-rule="evenodd"><path d="M.572 19.38h3.17c-.27 4.296 7.881 4.443 8.017 1.235 0-3.298-6.34-1.2-9.775-4.571C-.347 14.004-.414 7.64 6.912 7.46c1.641-.021 3.21.374 4.39 1.01v-.71h3.133v5.848H11.3v-1.089c-1.029-1.498-2.365-2.176-4.202-2.176-1.907 0-3.166.864-3.166 2.176 0 2.962 6.948 1.236 9.927 4.161 3.638 3.935.575 9.276-5.382 9.069-1.95 0-3.438-.41-4.736-1.273v.976H.572V19.38zM19.78 3.074h-3.245V0h6.837v9.783c2.249-1.798 4.045-2.548 5.994-2.548 2.824 0 4.964 1.385 4.964 5.36v9.783h3.096v3.074h-6.687V13.343c0-1.724-.533-3-2.212-3-1.299 0-3.132.826-5.155 2.327v9.708h3.09v3.074h-9.967v-3.074h3.285V3.074zm36.928 22.38h-6.264v-2.178c-5.026 4.567-11.685 2.419-11.912-3.15-.014-4.035 5.057-8.005 11.494-4.234-.114-2.302.828-5.516-4.01-5.735-1.72 0-3.055.715-3.858 2.104l-3.4-.904c2.85-5.886 15.033-5.51 14.856 1.313v9.71h3.094v3.073zm-6.682-6.6c-2.231-1.935-7.68-3.115-8.096 1.272.343 4.207 5.646 3.24 8.096.826v-2.099zm12.333-8.023H58.73V7.759h6.453v4.028C66.333 8.824 68.7 7.46 70.952 7.46h2.327v3.523h-1.91c-6.788.099-5.422 5.7-5.422 11.395h3.899v3.074h-11.04V22.38h3.552V10.83zm14.071 6.637c.961 6.68 8.915 6.763 11.97 2.548l3.117 1.349c-5.408 8.047-19.122 5.078-19-4.76 0-5.733 4.75-9.37 9.421-9.37 4.981 0 9.579 3.75 9.579 10.233H76.429zm11.476-2.552c-.57-2.808-3.077-4.872-5.888-4.872-2.812 0-4.942 1.912-5.475 4.872h11.363z" fill="#333"/><path d="M150.913 17.467c.962 6.68 8.915 6.762 11.971 2.547L166 21.363c-5.408 8.048-19.122 5.078-19-4.76 0-5.733 4.75-9.37 9.422-9.37 4.98 0 9.578 3.75 9.578 10.234h-15.087zm-14.776-6.639h-3.627V7.757h6.453v4.027c1.149-2.963 3.516-4.325 5.768-4.325h2.327v3.523h-1.91c-6.788.098-5.422 5.7-5.422 11.395h3.899v3.074h-11.04v-3.074h3.552V10.828zm-5.65 14.632h-6.264v-2.178c-5.026 4.568-11.687 2.42-11.914-3.15-.013-4.034 5.057-8.004 11.495-4.233-.113-2.302.829-5.516-4.01-5.735-1.72 0-3.054.715-3.857 2.104l-3.4-.905c2.849-5.885 15.032-5.509 14.856 1.313v9.71h3.094v3.074zm31.903-10.546c-.571-2.808-3.078-4.872-5.89-4.872-2.81 0-4.94 1.912-5.474 4.872h11.364zm-38.586 3.946c-2.23-1.934-7.68-3.114-8.095 1.273.341 4.206 5.645 3.24 8.095.826V18.86zm-13.826-4.429h-3.207c-.288-2.244-1.979-4.01-4.773-4.01-3.209 0-5.348 2.435-5.348 5.996.4 8.375 9.017 7.59 10.923 2.886l2.942 1.35c-1.567 3.486-4.545 5.322-8.482 5.322-6.26 0-9.2-5.024-9.2-9.52 0-5.098 3.932-9.22 8.859-9.22 1.949 0 3.74.6 5.08 1.723v-1.2h3.206v6.673z" fill="#1ABA9C"/></g></svg>