<svg width="29" height="26" viewBox="0 0 29 26" xmlns="http://www.w3.org/2000/svg"><title>F9180AE1-0E89-4421-8E36-33FB30DBD699</title><path d="M20.923 22.874A13.102 13.102 0 0 1 13 25.517c-7.18 0-13-5.712-13-12.759C0 5.712 5.82 0 13 0s13 5.712 13 12.758c0 3.017-1.067 5.79-2.85 7.974L29 25.517h-7l-1.077-2.643zM13 22.573c5.523 0 10-4.394 10-9.815 0-5.42-4.477-9.814-10-9.814S3 7.338 3 12.758s4.477 9.815 10 9.815zm7-11.77c0 2.575-2.616 5.96-7.001 8.825C8.856 16.93 6 13.344 6 10.804c.095-4.565 5.683-4.766 6.999-2.55 1.363-2.216 6.919-2.049 7.001 2.55z" fill="#999" fill-rule="evenodd"/></svg>